<?xml version="1.0" standalone="no"?>
<!DOCTYPE svg PUBLIC "-//W3C//DTD SVG 20010904//EN"
 "http://www.w3.org/TR/2001/REC-SVG-20010904/DTD/svg10.dtd">
<svg version="1.0" xmlns="http://www.w3.org/2000/svg"
 width="3095.000000pt" height="2459.000000pt" viewBox="0 0 3095.000000 2459.000000"
 preserveAspectRatio="xMidYMid meet">
<metadata>
Created by potrace 1.16, written by Peter Selinger 2001-2019
</metadata>
<g transform="translate(0.000000,2459.000000) scale(0.100000,-0.100000)"
fill="#000000" stroke="none">
<path d="M1710 22760 c0 -118 2 -140 15 -140 13 0 15 -26 15 -175 0 -141 3
-175 14 -175 15 0 26 -68 26 -172 0 -54 3 -68 15 -68 13 0 15 -21 15 -125 0
-101 3 -125 14 -125 11 0 16 -25 21 -105 6 -79 11 -105 21 -105 11 0 14 -22
14 -105 0 -82 3 -105 14 -105 14 0 26 -67 26 -152 0 -36 4 -48 15 -48 12 0 15
-17 15 -90 0 -69 3 -90 14 -90 14 0 26 -66 26 -142 0 -27 4 -38 15 -38 12 0
15 -17 15 -90 0 -69 3 -90 14 -90 14 0 26 -60 26 -131 0 -28 4 -39 15 -39 12
0 15 -16 15 -85 0 -65 3 -85 14 -85 16 0 26 -43 26 -116 0 -41 4 -54 15 -54
12 0 15 -17 15 -90 0 -70 3 -90 14 -90 15 0 26 -43 26 -106 0 -32 4 -44 15
-44 12 0 15 -16 15 -85 0 -65 3 -85 14 -85 17 0 26 -43 26 -121 0 -46 3 -59
15 -59 12 0 15 -18 15 -100 0 -78 3 -100 14 -100 17 0 26 -43 26 -121 0 -46 3
-59 15 -59 12 0 15 -16 15 -85 l0 -85 43 0 c106 0 207 -13 207 -26 0 -11 39
-14 205 -14 176 0 205 -2 205 -15 0 -12 18 -15 98 -15 156 0 262 -11 262 -26
0 -11 35 -14 175 -14 149 0 175 -2 175 -15 0 -12 14 -15 68 -15 149 0 282 -13
282 -27 0 -10 35 -13 175 -13 140 0 175 -3 175 -13 0 -14 133 -27 282 -27 54
0 68 -3 68 -15 0 -13 26 -15 175 -15 149 0 175 -2 175 -15 0 -12 15 -15 73
-15 41 0 142 -3 225 -7 117 -5 152 -9 152 -20 0 -10 38 -13 195 -13 167 0 195
-2 195 -15 0 -12 16 -15 88 -15 48 0 158 -3 245 -7 121 -5 157 -9 157 -20 0
-10 52 -13 280 -13 229 0 280 -2 280 -14 0 -11 121 -14 695 -20 852 -9 1585 0
1585 20 0 11 42 14 225 14 182 0 225 3 225 13 0 14 137 27 278 27 39 0 52 4
52 15 0 13 22 15 135 15 107 0 135 3 135 14 0 13 101 26 208 26 31 0 42 4 42
15 0 12 18 15 105 15 83 0 105 3 105 14 0 10 25 16 100 21 75 5 100 11 100 21
0 11 18 14 75 14 57 0 75 3 75 14 0 14 66 26 143 26 26 0 37 4 37 15 0 12 16
15 85 15 65 0 85 3 85 14 0 15 68 26 173 26 53 0 67 3 67 15 0 13 24 15 160
15 136 0 160 2 160 15 0 13 38 15 280 15 242 0 280 -2 280 -15 0 -13 26 -15
175 -15 149 0 175 -2 175 -15 0 -12 14 -15 68 -15 104 0 172 -11 172 -26 0
-11 21 -14 90 -14 73 0 90 -3 90 -15 0 -12 15 -15 74 -15 92 0 136 -8 136 -26
0 -11 20 -14 85 -14 69 0 85 -3 85 -15 0 -12 17 -15 91 -15 82 0 91 -2 96 -20
5 -19 14 -20 179 -20 148 0 174 2 174 15 0 8 5 15 10 15 6 0 10 -7 10 -15 0
-13 23 -15 145 -15 122 0 145 2 145 15 0 12 17 15 90 15 73 0 90 -3 90 -15 0
-8 7 -15 15 -15 12 0 15 -14 15 -70 0 -53 3 -70 14 -70 10 0 16 -20 21 -70 5
-50 11 -70 21 -70 11 0 14 -17 14 -70 0 -53 3 -70 14 -70 8 0 17 -15 20 -35 4
-21 13 -35 21 -35 11 0 15 -12 15 -40 0 -27 4 -40 14 -40 9 0 16 -18 20 -50 5
-34 11 -50 21 -50 8 0 15 -7 15 -15 0 -8 6 -15 14 -15 8 0 17 -15 20 -35 4
-21 13 -35 21 -35 10 0 15 -11 15 -35 0 -23 5 -35 14 -35 9 0 17 -15 21 -40 4
-25 12 -40 21 -40 9 0 14 -12 14 -35 0 -24 5 -35 15 -35 8 0 17 -14 21 -35 3
-20 12 -35 20 -35 11 0 14 -17 14 -70 0 -53 3 -70 14 -70 10 0 15 -28 21 -120
5 -93 10 -120 21 -120 8 0 14 -7 14 -15 0 -8 -7 -15 -15 -15 -8 0 -15 -9 -15
-20 0 -11 7 -20 15 -20 13 0 15 -26 15 -175 0 -149 2 -175 15 -175 21 0 19
-28 -2 -33 -17 -4 -17 -5 0 -6 9 0 17 -5 17 -10 0 -5 -8 -12 -17 -14 -17 -4
-17 -5 0 -6 15 -1 17 -13 17 -99 0 -152 10 -252 26 -252 11 0 14 -35 14 -175
0 -144 3 -175 14 -175 11 0 16 -25 21 -105 6 -79 11 -105 21 -105 12 0 14 -87
14 -540 0 -473 2 -540 15 -540 8 0 15 -9 15 -20 0 -11 -7 -20 -15 -20 -8 0
-15 -7 -15 -15 0 -8 7 -15 15 -15 8 0 15 -9 15 -20 0 -11 -7 -20 -15 -20 -8 0
-15 -7 -15 -15 0 -8 -14 -17 -35 -21 -20 -3 -35 -12 -35 -20 0 -10 -15 -14
-55 -14 -42 0 -55 -3 -55 -15 0 -8 -7 -15 -15 -15 -12 0 -15 -19 -15 -110 0
-91 3 -110 15 -110 8 0 15 -7 15 -15 0 -8 -7 -15 -15 -15 -8 0 -15 -9 -15 -20
0 -11 7 -20 15 -20 11 0 15 -13 15 -52 0 -91 12 -158 26 -158 12 0 14 -48 14
-265 0 -229 2 -265 15 -265 13 0 15 -22 15 -135 0 -113 -2 -135 -15 -135 -12
0 -15 -20 -15 -120 0 -96 -3 -120 -14 -120 -8 0 -17 -15 -20 -35 -4 -21 -13
-35 -21 -35 -11 0 -15 -12 -15 -40 0 -29 4 -40 15 -40 8 0 15 -7 15 -15 0 -8
-7 -15 -15 -15 -10 0 -15 -11 -15 -35 0 -23 -5 -35 -14 -35 -13 0 -26 -41 -26
-86 0 -17 6 -24 20 -24 16 0 20 -7 20 -35 0 -28 -4 -35 -20 -35 -17 0 -20 -7
-20 -50 0 -38 -4 -50 -15 -50 -12 0 -15 -18 -15 -105 0 -82 -3 -105 -14 -105
-18 0 -26 -44 -26 -136 0 -59 -3 -74 -15 -74 -13 0 -15 -34 -15 -245 0 -211
-2 -245 -15 -245 -12 0 -15 -13 -15 -55 0 -42 3 -55 15 -55 10 0 15 -11 15
-35 0 -24 -5 -35 -15 -35 -12 0 -15 -14 -15 -70 0 -56 3 -70 15 -70 12 0 15
-13 15 -55 0 -42 3 -55 15 -55 10 0 15 -10 15 -31 0 -22 5 -32 20 -36 23 -6
27 -33 5 -33 -8 0 -15 -6 -15 -14 0 -9 18 -16 50 -20 34 -5 50 -11 50 -21 0
-10 11 -15 35 -15 24 0 35 -5 35 -15 0 -11 12 -15 51 -15 42 0 52 -3 56 -20 5
-17 14 -20 69 -20 46 0 66 -4 70 -14 3 -9 29 -16 70 -21 45 -5 64 -11 64 -21
0 -10 14 -14 55 -14 40 0 55 -4 55 -14 0 -10 20 -16 70 -21 47 -5 70 -11 70
-20 0 -9 21 -14 66 -17 36 -2 68 -9 72 -15 4 -6 37 -14 75 -18 44 -5 67 -12
67 -20 0 -9 24 -14 80 -17 47 -2 84 -8 88 -15 4 -6 40 -15 80 -18 51 -5 72
-12 72 -21 0 -8 9 -14 20 -14 11 0 20 7 20 15 0 8 5 15 10 15 6 0 10 -7 10
-15 0 -13 27 -15 180 -15 153 0 180 2 180 15 0 8 7 15 15 15 8 0 15 -7 15 -15
0 -8 9 -15 20 -15 11 0 20 6 20 14 0 7 9 16 20 19 15 4 20 14 20 36 0 17 5 31
10 31 6 0 10 -22 10 -50 l0 -50 265 0 c219 0 265 2 265 14 0 11 56 14 316 18
263 3 317 6 324 18 8 12 54 16 265 18 197 3 255 7 255 17 0 10 62 13 276 17
225 4 277 7 284 19 8 11 55 15 250 18 183 2 240 6 240 16 0 9 63 13 261 18
203 4 264 8 270 19 6 10 58 14 229 16 172 3 220 6 220 16 0 11 53 14 241 18
194 4 242 7 249 19 7 11 51 15 220 17 162 3 210 6 210 16 0 16 132 26 343 26
124 0 147 2 147 15 0 13 32 15 225 15 182 0 225 3 225 14 0 18 113 26 398 26
199 0 232 2 232 15 0 13 42 15 315 15 257 0 315 2 315 13 0 17 203 27 543 27
195 0 227 2 227 15 0 12 19 15 110 15 l110 0 0 35 c0 28 -4 35 -20 35 -11 0
-20 7 -20 15 0 9 -6 18 -14 21 -8 3 -18 19 -21 35 -4 16 -13 29 -21 29 -8 0
-14 9 -14 20 0 11 -7 20 -15 20 -8 0 -15 7 -15 16 0 9 -9 18 -20 21 -23 6 -27
33 -5 33 8 0 15 7 15 15 0 14 -17 20 -47 16 -7 -1 -13 7 -13 19 0 13 -7 20
-20 20 -16 0 -20 7 -20 35 0 24 -5 35 -15 35 -8 0 -17 14 -21 35 -3 20 -12 35
-20 35 -9 0 -14 12 -14 35 0 28 -4 35 -20 35 -16 0 -20 7 -20 35 0 24 -5 35
-15 35 -8 0 -15 9 -15 20 0 11 -7 20 -15 20 -8 0 -17 14 -21 35 -3 20 -12 35
-20 35 -8 0 -14 7 -14 15 0 8 -6 15 -14 15 -15 0 -26 42 -26 101 0 28 -4 39
-15 39 -8 0 -15 9 -15 20 0 11 -7 20 -15 20 -8 0 -17 14 -21 35 -3 20 -12 35
-20 35 -9 0 -14 12 -14 35 0 23 -5 35 -14 35 -15 0 -26 30 -26 73 0 17 -5 27
-15 27 -11 0 -15 12 -15 50 0 35 -5 52 -16 58 -10 5 -18 28 -21 55 -4 31 -10
47 -19 47 -9 0 -14 12 -14 35 0 28 -4 35 -20 35 -16 0 -20 7 -20 35 0 28 4 35
20 35 11 0 20 7 20 15 0 8 -9 15 -20 15 -16 0 -20 7 -20 33 l0 34 -107 6 c-58
4 -137 7 -175 7 -54 0 -68 3 -68 15 0 13 -34 15 -245 15 -238 0 -245 1 -245
20 0 11 -6 20 -14 20 -17 0 -26 31 -26 93 0 35 -4 47 -15 47 -12 0 -15 17 -15
90 0 69 -3 90 -14 90 -21 0 -26 77 -26 420 0 364 6 480 26 480 11 0 14 40 14
210 0 170 -3 210 -14 210 -14 0 -26 66 -26 143 0 26 -4 37 -15 37 -8 0 -15 9
-15 20 0 11 -6 20 -14 20 -8 0 -17 13 -21 29 l-6 29 -170 7 c-134 6 -169 10
-169 21 0 12 -67 14 -405 14 -353 0 -405 2 -405 15 0 13 -31 15 -219 15 -120
0 -233 3 -250 6 -28 6 -31 4 -31 -18 0 -47 12 -88 26 -88 9 0 14 -12 14 -35 0
-23 5 -35 14 -35 7 0 16 -9 19 -20 3 -11 12 -20 21 -20 13 0 16 -13 16 -70 0
-56 3 -70 15 -70 9 0 15 -9 15 -24 0 -45 13 -86 26 -86 9 0 14 -11 14 -30 0
-17 6 -33 14 -36 10 -4 15 -38 21 -125 5 -92 10 -119 21 -119 9 0 14 -11 14
-30 0 -20 -5 -30 -15 -30 -12 0 -15 -13 -15 -60 0 -47 3 -60 15 -60 8 0 15 -7
15 -15 0 -8 7 -15 15 -15 8 0 15 -7 15 -15 0 -8 -7 -15 -15 -15 -8 0 -15 -7
-15 -15 0 -8 -7 -15 -15 -15 -8 0 -15 7 -15 15 0 8 -9 15 -20 15 -17 0 -20 -7
-20 -50 0 -36 4 -52 15 -56 8 -4 15 -18 15 -34 0 -23 -5 -30 -30 -35 -16 -4
-30 -13 -30 -21 0 -8 -9 -14 -20 -14 -13 0 -20 -7 -20 -20 0 -11 7 -20 15 -20
8 0 15 -7 15 -15 0 -10 -11 -15 -35 -15 -23 0 -35 -5 -35 -14 0 -8 -7 -16 -15
-20 -8 -3 -15 -12 -15 -21 0 -8 -6 -15 -13 -15 -7 0 -21 -9 -31 -21 -14 -17
-24 -20 -53 -14 -29 5 -35 3 -40 -14 -3 -12 -14 -21 -24 -21 -15 0 -19 -7 -19
-35 0 -19 -4 -35 -10 -35 -5 0 -10 9 -10 20 0 14 -7 20 -21 20 -12 0 -23 -8
-26 -20 -8 -29 -88 -29 -96 0 -4 15 -14 20 -41 20 -33 0 -36 2 -36 29 0 23 -5
30 -29 34 -25 5 -29 11 -35 56 -5 35 -11 51 -21 51 -8 0 -15 7 -15 15 0 8 6
15 14 15 10 0 15 26 21 105 5 80 10 105 21 105 11 0 14 19 14 85 0 66 3 85 14
85 11 0 15 21 17 85 3 59 8 88 18 94 8 6 15 35 19 80 3 48 9 71 17 71 10 0 14
27 17 96 2 78 6 97 21 105 15 9 17 26 17 129 0 100 3 120 15 120 12 0 15 16
15 84 0 97 1 96 -107 96 -50 0 -62 3 -66 18 -4 16 -5 16 -6 0 -1 -22 -21 -24
-21 -3 0 12 -19 15 -110 15 -86 0 -110 3 -110 14 0 14 -67 26 -152 26 -36 0
-48 4 -48 15 0 12 -15 15 -75 15 l-75 0 0 35 c0 24 -5 35 -15 35 -10 0 -15 11
-15 35 0 24 -5 35 -15 35 -9 0 -15 9 -15 24 0 45 -13 86 -26 86 -9 0 -14 11
-14 30 0 21 -5 30 -16 30 -9 0 -18 9 -21 20 -3 11 -12 20 -19 20 -10 0 -14 15
-14 55 0 42 -3 55 -15 55 -8 0 -15 7 -15 15 0 8 -9 15 -20 15 -16 0 -20 7 -20
35 0 23 -5 35 -14 35 -7 0 -16 9 -19 20 -3 11 -12 20 -21 20 -13 0 -16 11 -16
50 0 43 -3 50 -20 50 -16 0 -20 7 -20 35 0 24 -5 35 -15 35 -8 0 -15 7 -15 15
0 9 -7 18 -15 21 -8 4 -15 12 -15 20 0 8 -8 14 -19 14 -14 0 -21 10 -25 35 -4
21 -13 35 -21 35 -8 0 -15 7 -15 15 0 8 -7 15 -16 15 -9 0 -18 9 -21 20 -3 11
-12 20 -19 20 -8 0 -14 9 -14 20 0 11 -7 20 -15 20 -8 0 -15 7 -15 15 0 8 -9
15 -20 15 -13 0 -20 7 -20 20 0 11 -7 20 -15 20 -8 0 -15 7 -15 15 0 8 -9 15
-20 15 -13 0 -20 7 -20 20 0 11 -7 20 -15 20 -8 0 -15 7 -15 15 0 8 -9 15 -20
15 -11 0 -20 6 -20 14 0 15 -30 26 -72 26 -18 0 -28 5 -28 15 0 8 -9 15 -20
15 -16 0 -20 7 -20 35 0 23 -5 35 -14 35 -7 0 -16 9 -19 20 -3 11 -12 20 -21
20 -9 0 -16 7 -16 15 0 10 -11 15 -35 15 -28 0 -35 4 -35 20 0 11 -7 20 -15
20 -10 0 -15 11 -15 35 0 28 -4 35 -20 35 -13 0 -20 7 -20 20 0 11 -7 20 -15
20 -8 0 -15 7 -15 15 0 8 -9 15 -20 15 -15 0 -20 7 -20 29 0 31 -18 41 -72 41
-24 0 -28 4 -28 28 0 15 -3 37 -6 50 l-6 22 -258 0 c-326 0 -470 8 -470 27 0
7 -9 13 -20 13 -11 0 -20 7 -20 15 0 8 -7 15 -15 15 -8 0 -15 7 -15 15 0 8 -7
15 -16 15 -9 0 -18 9 -21 20 -3 11 -12 20 -19 20 -8 0 -14 9 -14 20 0 11 -6
20 -14 20 -8 0 -17 14 -21 30 -4 17 -13 30 -21 30 -9 0 -14 11 -14 35 0 25 -4
35 -16 35 -9 0 -18 9 -21 20 -3 11 -12 20 -19 20 -8 0 -14 9 -14 20 0 11 -6
20 -14 20 -7 0 -16 9 -19 20 -3 11 -12 20 -21 20 -11 0 -16 9 -16 30 0 23 -4
30 -20 30 -13 0 -20 7 -20 20 0 11 -7 20 -15 20 -10 0 -15 10 -15 29 0 20 -6
30 -20 34 -12 3 -20 14 -20 26 0 12 -6 21 -14 21 -8 0 -17 14 -21 30 -4 17
-13 30 -21 30 -9 0 -14 11 -14 35 0 24 -5 35 -15 35 -8 0 -17 14 -21 35 -3 20
-12 35 -20 35 -8 0 -14 9 -14 20 0 11 -6 20 -14 20 -9 0 -16 18 -20 50 -5 34
-11 50 -21 50 -10 0 -15 11 -15 35 0 24 -5 35 -15 35 -10 0 -16 16 -21 49 -4
28 -12 52 -20 55 -9 4 -14 22 -14 56 0 36 -4 50 -14 50 -13 0 -26 41 -26 85 0
13 -6 25 -12 27 -9 3 -14 34 -16 91 -3 61 -8 87 -17 87 -16 0 -25 150 -25 437
l0 223 -45 0 c-31 0 -45 4 -45 13 0 17 -350 27 -927 27 -334 0 -383 2 -383 15
0 8 -7 15 -15 15 -12 0 -15 14 -15 70 0 56 -3 70 -15 70 -13 0 -15 20 -15 123
0 200 -11 337 -27 337 -10 0 -13 18 -13 70 0 55 -3 70 -15 70 -8 0 -17 14 -21
35 -3 20 -12 35 -20 35 -9 0 -14 12 -14 35 0 24 -5 35 -14 35 -8 0 -17 13 -21
29 -5 22 -14 31 -36 36 -16 4 -29 13 -29 21 0 9 -11 14 -35 14 -25 0 -35 4
-35 16 0 9 -9 18 -20 21 -11 3 -20 11 -20 18 0 7 -16 16 -35 19 -21 4 -35 13
-35 21 0 8 -7 15 -15 15 -8 0 -15 6 -15 14 0 8 -15 17 -34 20 -31 6 -34 9 -40
56 -5 34 -11 50 -21 50 -8 0 -15 -7 -15 -15 0 -8 -7 -15 -15 -15 -10 0 -15 10
-15 30 0 23 -4 30 -20 30 -18 0 -20 7 -20 55 0 48 -2 55 -20 55 -11 0 -20 6
-20 14 0 8 -13 17 -29 21 -26 5 -29 11 -35 56 -5 33 -11 49 -21 49 -8 0 -15 7
-15 15 0 8 -7 15 -15 15 -8 0 -15 9 -15 20 0 13 -7 20 -20 20 -16 0 -20 7 -20
35 0 24 5 35 15 35 8 0 15 7 15 15 0 8 -7 15 -15 15 -8 0 -15 -7 -15 -15 0
-31 -29 -15 -32 18 -3 28 -7 32 -35 35 -33 3 -49 32 -18 32 11 0 15 11 15 40
0 39 -1 40 -35 40 -19 0 -35 5 -35 10 0 6 16 10 35 10 28 0 35 4 35 20 0 13 7
20 20 20 11 0 20 -7 20 -15 0 -8 7 -15 15 -15 8 0 15 6 15 14 0 10 26 15 105
21 58 4 105 11 105 16 0 5 9 9 20 9 13 0 20 7 20 20 0 16 -7 20 -32 20 -63 0
-78 9 -78 46 0 24 -5 34 -15 34 -8 0 -15 7 -15 15 0 8 -9 15 -20 15 -16 0 -20
7 -20 35 0 24 -5 35 -15 35 -8 0 -15 7 -15 16 0 9 -9 18 -20 21 -14 4 -20 14
-20 33 0 19 -6 29 -20 33 -15 4 -20 14 -20 41 0 25 -4 36 -15 36 -10 0 -15 10
-15 29 0 25 -5 30 -35 35 -34 7 -35 8 -35 56 0 38 -4 50 -15 50 -10 0 -15 11
-15 35 0 28 -4 35 -20 35 -16 0 -20 7 -20 35 0 24 -5 35 -15 35 -9 0 -15 9
-15 24 0 45 -13 86 -26 86 -8 0 -14 7 -14 15 0 8 -7 15 -15 15 -11 0 -15 11
-15 38 0 76 -12 142 -26 142 -9 0 -14 12 -14 35 0 24 -5 35 -15 35 -10 0 -15
10 -15 31 0 22 -5 32 -20 36 -17 5 -20 14 -20 68 0 54 -3 63 -20 68 -11 3 -20
12 -20 21 0 9 -7 16 -15 16 -8 0 -15 9 -15 20 0 11 -7 20 -15 20 -10 0 -15 10
-15 31 0 22 -5 32 -20 36 -11 3 -20 12 -20 19 0 8 -6 14 -14 14 -8 0 -17 15
-20 35 -4 21 -13 35 -21 35 -8 0 -15 6 -15 14 0 8 -15 17 -35 20 -21 4 -35 13
-35 21 0 8 -7 15 -15 15 -8 0 -15 7 -15 16 0 9 -9 18 -20 21 -11 3 -20 12 -20
19 0 8 -7 14 -15 14 -8 0 -15 6 -15 14 0 8 -15 17 -34 20 -28 5 -36 12 -41 36
-4 17 -13 30 -21 30 -11 0 -14 -19 -14 -89 0 -129 -6 -151 -41 -151 -22 0 -29
5 -29 20 0 11 -7 20 -15 20 -8 0 -15 7 -15 15 0 10 -10 15 -34 15 -25 0 -35 5
-39 20 -4 14 -14 20 -35 20 -25 0 -31 5 -37 29 -5 26 -11 29 -56 35 -33 5 -49
11 -49 21 0 12 -17 15 -85 15 -69 0 -85 3 -85 15 0 8 -8 15 -17 15 -10 1 -60
3 -110 6 -89 5 -93 5 -93 -15 0 -25 -27 -28 -33 -3 -4 16 -5 16 -6 0 0 -10 -5
-18 -10 -18 -5 0 -12 8 -14 18 -4 16 -5 16 -6 0 -1 -15 -11 -18 -65 -18 -53 0
-65 3 -69 18 -4 16 -5 16 -6 0 -1 -25 -31 -23 -31 2 0 17 -7 20 -49 20 -53 0
-61 10 -61 73 0 17 -5 27 -15 27 -8 0 -15 7 -15 15 0 13 -58 15 -460 15 -402
0 -460 -2 -460 -15 0 -13 -38 -15 -280 -15 -229 0 -280 -2 -280 -14 0 -16
-101 -26 -267 -26 -94 0 -113 -3 -113 -15 0 -13 -22 -15 -140 -15 -111 0 -140
-3 -140 -14 0 -16 -69 -26 -177 -26 -58 0 -73 -3 -73 -15 0 -13 -21 -15 -125
-15 -98 0 -125 -3 -125 -14 0 -15 -99 -26 -247 -26 -76 0 -93 -3 -93 -15 0
-13 -26 -15 -175 -15 -140 0 -175 -3 -175 -13 0 -17 -146 -27 -392 -27 -143 0
-168 -2 -168 -15 0 -13 -157 -15 -1350 -15 -1193 0 -1350 2 -1350 15 0 13 -27
15 -182 15 -322 0 -558 11 -558 27 0 10 -47 13 -245 13 -211 0 -245 2 -245 15
0 13 -22 15 -138 15 -214 0 -352 10 -352 27 0 10 -43 13 -225 13 -193 0 -225
2 -225 15 0 13 -20 15 -123 15 -200 0 -337 11 -337 27 0 10 -41 13 -210 13
-180 0 -210 2 -210 15 0 12 -18 15 -102 15 -199 0 -358 12 -358 27 0 10 -41
13 -210 13 -180 0 -210 2 -210 15 0 13 -20 15 -123 15 -200 0 -337 11 -337 27
0 10 -49 13 -260 13 -224 0 -260 2 -260 15 0 11 -12 15 -50 15 l-50 0 0 -140z"/>
<path d="M19120 22850 c0 -11 -7 -20 -15 -20 -10 0 -15 -10 -15 -29 0 -20 -6
-30 -20 -34 -15 -4 -20 -14 -20 -36 0 -21 -5 -31 -15 -31 -10 0 -15 -11 -15
-35 0 -28 -4 -35 -20 -35 -16 0 -20 -7 -20 -35 0 -24 -5 -35 -15 -35 -12 0
-15 -13 -15 -55 0 -40 -4 -55 -14 -55 -15 0 -26 -30 -26 -72 0 -18 -5 -28 -15
-28 -12 0 -15 -17 -15 -90 0 -70 -3 -90 -14 -90 -22 0 -26 -34 -26 -221 0
-192 5 -239 26 -239 11 0 14 -20 14 -85 0 -69 3 -85 15 -85 11 0 15 -12 15
-47 0 -62 9 -93 26 -93 10 0 14 -15 14 -55 0 -42 3 -55 15 -55 10 0 15 -11 15
-35 0 -28 4 -35 20 -35 17 0 20 -7 20 -50 0 -38 4 -50 15 -50 11 0 15 -11 15
-40 0 -33 3 -40 20 -40 16 0 20 -7 20 -35 0 -24 -5 -35 -15 -35 -8 0 -15 -7
-15 -15 0 -10 10 -15 30 -15 28 0 30 -3 30 -35 0 -28 4 -35 20 -35 13 0 20 -7
20 -20 0 -11 7 -20 15 -20 9 0 18 -12 22 -30 6 -30 33 -43 33 -15 0 10 11 15
35 15 28 0 35 -4 35 -20 0 -11 7 -20 15 -20 8 0 15 9 15 20 0 18 7 20 70 20
56 0 70 -3 70 -15 0 -8 -7 -15 -15 -15 -8 0 -15 -9 -15 -20 0 -11 7 -20 15
-20 21 0 19 -28 -2 -33 -17 -4 -17 -5 0 -6 20 -1 23 -18 5 -24 -8 -2 -7 -3 2
-3 11 1 15 15 16 51 1 92 -6 85 89 85 65 0 85 -3 85 -14 0 -13 41 -26 86 -26
17 0 24 6 24 20 0 18 7 20 85 20 67 0 85 -3 85 -14 0 -8 -10 -17 -22 -19 -15
-3 -10 -5 14 -6 20 0 39 -7 41 -13 4 -10 6 -10 6 0 1 9 32 12 121 12 100 0
120 -2 120 -15 0 -12 14 -15 73 -14 39 1 64 3 55 6 -10 2 -18 9 -18 14 0 5 47
9 105 9 58 0 105 -4 105 -9 0 -18 54 -23 66 -7 9 12 30 16 93 16 44 0 81 -4
81 -9 0 -11 -35 -21 -72 -21 -34 0 -38 -25 -5 -34 47 -12 77 -7 77 14 0 18 7
20 55 20 42 0 55 3 55 15 0 8 7 15 15 15 8 0 15 -7 15 -15 0 -8 -7 -15 -15
-15 -8 0 -15 -7 -15 -15 0 -8 7 -15 15 -15 8 0 15 -9 15 -20 0 -11 -7 -20 -15
-20 -8 0 -15 9 -15 20 0 13 -7 20 -20 20 -13 0 -20 -7 -20 -20 0 -13 7 -20 20
-20 11 0 20 -7 20 -15 0 -8 9 -15 20 -15 11 0 20 7 20 15 0 21 18 19 23 -2 2
-10 2 -3 0 15 -3 27 -1 32 17 32 17 0 20 -6 20 -44 0 -35 4 -45 20 -49 12 -3
20 -14 20 -26 0 -12 6 -21 15 -21 8 0 15 -7 15 -15 0 -8 -7 -15 -15 -15 -28 0
-15 -28 15 -35 25 -5 30 -11 30 -36 0 -22 5 -29 20 -29 13 0 20 -7 20 -20 0
-11 7 -20 15 -20 10 0 15 -10 15 -27 0 -43 11 -73 26 -73 9 0 14 -12 14 -35 0
-24 5 -35 15 -35 11 0 15 -12 15 -50 0 -27 -4 -50 -10 -50 -5 0 -10 7 -10 15
0 9 -9 15 -25 15 -18 0 -25 -5 -25 -20 0 -13 7 -20 20 -20 15 0 20 -7 20 -29
0 -20 6 -30 20 -34 12 -3 20 -14 20 -26 0 -12 6 -21 14 -21 9 0 16 -12 18 -32
2 -21 8 -33 18 -33 10 0 16 12 18 33 2 20 9 32 18 32 10 0 14 -13 14 -50 0
-38 4 -50 15 -50 8 0 15 -6 15 -12 0 -7 3 -23 6 -35 5 -19 2 -23 -15 -23 -14
0 -21 -6 -21 -20 0 -11 7 -20 15 -20 8 0 15 -7 15 -15 0 -8 9 -15 20 -15 11 0
20 -6 20 -14 0 -7 -9 -16 -20 -19 -11 -3 -20 -12 -20 -21 0 -9 8 -16 20 -16
11 0 20 7 20 15 0 8 7 15 15 15 10 0 15 -10 15 -27 0 -43 11 -73 26 -73 11 0
14 -17 14 -70 0 -53 3 -70 14 -70 8 0 17 -15 20 -35 4 -21 13 -35 21 -35 8 0
15 -9 15 -20 0 -11 -7 -20 -15 -20 -8 0 -15 -7 -15 -15 0 -8 7 -15 15 -15 10
0 15 -11 15 -35 0 -24 -5 -35 -15 -35 -10 0 -15 -11 -15 -35 0 -24 5 -35 15
-35 10 0 15 11 15 35 0 24 5 35 15 35 12 0 15 -14 15 -70 0 -63 2 -70 20 -70
19 0 20 -7 20 -90 0 -73 3 -90 15 -90 12 0 15 -14 15 -66 0 -57 3 -67 20 -71
11 -3 20 -12 20 -19 0 -8 9 -14 20 -14 13 0 20 -7 20 -20 0 -16 7 -20 30 -20
20 0 30 -5 30 -15 0 -8 9 -15 20 -15 11 0 20 7 20 15 0 12 14 15 70 15 56 0
70 -3 70 -15 0 -8 7 -15 15 -15 8 0 15 7 15 15 0 10 11 15 35 15 24 0 35 -5
35 -15 0 -11 11 -15 40 -15 29 0 40 4 40 15 0 11 12 15 50 15 38 0 50 -4 50
-15 0 -13 46 -15 355 -15 292 0 355 -2 355 -14 0 -14 97 -26 217 -26 49 0 63
-3 63 -15 0 -11 12 -15 50 -15 43 0 50 -3 50 -20 0 -13 7 -20 20 -20 11 0 20
-7 20 -15 0 -8 -9 -15 -20 -15 -35 0 -23 -29 15 -36 30 -5 35 -10 35 -35 0
-22 -5 -29 -20 -29 -13 0 -20 -7 -20 -20 0 -13 7 -20 20 -20 18 0 20 -7 20
-70 0 -56 3 -70 15 -70 8 0 15 -6 15 -14 0 -8 15 -17 35 -20 21 -4 35 -13 35
-21 0 -11 14 -15 55 -15 42 0 55 3 55 15 0 8 7 15 15 15 8 0 15 -7 15 -15 0
-8 -7 -15 -15 -15 -8 0 -15 -9 -15 -20 0 -13 7 -20 20 -20 13 0 20 7 20 20 0
18 7 20 70 20 56 0 70 3 70 15 0 10 10 15 31 15 22 0 32 5 36 20 3 11 12 20
19 20 8 0 14 9 14 20 0 17 7 20 50 20 38 0 50 4 50 15 0 10 10 15 34 15 25 0
35 5 39 20 3 11 12 20 21 20 9 0 16 7 16 15 0 8 7 15 15 15 13 0 15 -39 15
-295 0 -256 -2 -295 -15 -295 -13 0 -15 -36 -15 -265 l0 -265 -35 0 c-24 0
-35 -5 -35 -15 0 -8 -7 -15 -15 -15 -8 0 -15 -9 -15 -20 0 -18 -7 -20 -55 -20
-42 0 -55 -3 -55 -15 0 -10 -11 -15 -35 -15 -28 0 -35 -4 -35 -20 0 -18 -7
-20 -55 -20 -42 0 -55 -3 -55 -15 0 -8 -7 -15 -15 -15 -8 0 -15 7 -15 15 0 12
-13 15 -55 15 -40 0 -55 -4 -55 -14 0 -8 -13 -15 -32 -18 -46 -5 -68 1 -68 18
0 8 -7 14 -15 14 -8 0 -15 9 -15 20 0 13 -7 20 -20 20 -15 0 -20 -7 -20 -25 0
-16 6 -25 15 -25 8 0 15 -4 15 -10 0 -5 -7 -10 -15 -10 -10 0 -15 -11 -15 -35
0 -24 -5 -35 -15 -35 -11 0 -15 13 -16 53 -1 28 -3 44 -6 35 -5 -22 -33 -24
-33 -3 0 8 -9 15 -20 15 -16 0 -20 -7 -20 -35 0 -33 -2 -35 -35 -35 -24 0 -35
-5 -35 -15 0 -8 -7 -15 -15 -15 -8 0 -15 -9 -15 -20 0 -11 -7 -20 -15 -20 -8
0 -15 9 -15 20 0 13 -7 20 -20 20 -17 0 -20 7 -20 50 0 43 -3 50 -20 50 -16 0
-20 -7 -20 -35 0 -24 -5 -35 -15 -35 -10 0 -15 -11 -15 -35 0 -28 -4 -35 -20
-35 -19 0 -20 -7 -20 -90 0 -83 1 -90 20 -90 18 0 20 -7 20 -55 l0 -55 50 0
c28 0 50 -4 50 -10 0 -6 56 -10 148 -10 81 0 326 -3 545 -7 321 -5 397 -9 397
-20 0 -7 9 -13 20 -13 11 0 20 -7 20 -15 0 -8 6 -15 14 -15 8 0 17 -16 21 -37
4 -21 11 -41 17 -44 6 -4 13 -27 15 -53 4 -30 10 -46 19 -46 8 0 14 7 14 15 0
8 9 15 20 15 11 0 20 7 20 15 0 8 7 15 15 15 9 0 15 9 15 21 0 12 8 23 20 26
14 4 20 14 20 34 0 19 5 29 15 29 8 0 15 7 15 15 0 13 42 15 314 15 220 0 315
-3 318 -11 2 -7 69 -13 197 -17 l193 -5 -6 -30 c-3 -16 -6 -38 -6 -48 0 -14
-7 -19 -29 -19 -25 0 -30 -5 -35 -35 -4 -21 -13 -35 -21 -35 -10 0 -15 -11
-15 -35 0 -28 -4 -35 -20 -35 -13 0 -20 -7 -20 -20 0 -11 -7 -20 -15 -20 -8 0
-15 -9 -15 -20 0 -11 -7 -20 -15 -20 -8 0 -15 -7 -15 -15 0 -8 -9 -15 -20 -15
-16 0 -20 -7 -20 -35 0 -23 -5 -35 -14 -35 -8 0 -17 -15 -20 -35 -4 -21 -13
-35 -21 -35 -8 0 -15 -7 -15 -15 0 -8 -7 -15 -15 -15 -8 0 -15 -9 -15 -20 0
-13 -7 -20 -20 -20 -16 0 -20 -7 -20 -35 0 -28 -4 -35 -20 -35 -11 0 -20 -6
-20 -14 0 -8 -7 -16 -15 -20 -9 -3 -15 -19 -15 -41 0 -28 -4 -35 -20 -35 -15
0 -20 -7 -20 -29 0 -16 -6 -31 -15 -35 -9 -3 -15 -18 -15 -35 0 -20 -6 -30
-20 -34 -11 -3 -20 -12 -20 -21 0 -9 -7 -16 -15 -16 -10 0 -15 -11 -15 -35 0
-24 -5 -35 -15 -35 -8 0 -15 -7 -15 -15 0 -8 -9 -15 -20 -15 -17 0 -20 -7 -20
-40 0 -33 -3 -40 -20 -40 -11 0 -20 -7 -20 -15 0 -8 -4 -15 -10 -15 -5 0 -10
-9 -10 -20 0 -11 4 -20 10 -20 5 0 12 -16 16 -35 3 -20 12 -35 20 -35 9 0 14
-11 14 -27 0 -43 11 -73 26 -73 9 0 14 -12 14 -35 0 -23 5 -35 14 -35 8 0 17
-15 20 -35 4 -21 13 -35 21 -35 8 0 15 -9 15 -20 0 -11 7 -20 15 -20 10 0 15
-10 15 -29 0 -20 6 -30 20 -34 11 -3 20 -12 20 -21 0 -9 7 -16 15 -16 10 0 15
-11 15 -35 0 -28 4 -35 20 -35 13 0 20 -7 20 -20 0 -11 6 -20 14 -20 8 0 17
-14 21 -30 4 -17 13 -30 21 -30 8 0 14 -9 14 -20 0 -11 7 -20 15 -20 8 0 15
-7 15 -16 0 -9 9 -18 20 -21 11 -3 20 -12 20 -19 0 -11 35 -14 190 -14 l190 0
0 51 c0 42 3 52 20 56 11 3 20 12 20 19 0 8 9 14 20 14 11 0 20 7 20 15 0 8 7
15 15 15 8 0 15 9 15 20 0 11 7 20 15 20 8 0 15 7 15 16 0 9 9 18 20 21 14 4
20 14 20 34 0 18 5 29 14 29 8 0 17 15 20 35 4 21 13 35 21 35 8 0 15 9 15 20
0 13 7 20 20 20 11 0 20 7 20 15 0 8 7 15 15 15 8 0 15 9 15 20 0 13 7 20 20
20 11 0 20 7 20 15 0 8 7 15 15 15 8 0 15 9 15 20 0 13 7 20 20 20 11 0 20 7
20 15 0 8 7 15 15 15 12 0 15 13 15 55 l0 55 35 0 c23 0 35 5 35 14 0 8 15 17
35 20 21 4 35 13 35 21 0 8 9 15 20 15 16 0 20 7 20 35 0 24 5 35 15 35 10 0
15 11 15 35 0 33 2 35 35 35 24 0 35 5 35 15 0 8 7 15 16 15 9 0 18 9 21 20 3
11 12 20 19 20 8 0 14 7 14 15 0 8 7 15 16 15 9 0 18 9 21 20 3 11 12 20 19
20 9 0 14 12 14 35 0 24 5 35 15 35 8 0 17 -14 21 -35 5 -30 10 -35 35 -35 26
0 29 -3 29 -35 0 -28 4 -35 20 -35 16 0 20 -7 20 -35 0 -24 5 -35 15 -35 10 0
15 -11 15 -35 0 -28 4 -35 20 -35 17 0 20 -7 20 -50 0 -38 4 -50 15 -50 8 0
15 -9 15 -20 0 -13 7 -20 20 -20 17 0 20 -7 20 -50 0 -36 4 -50 14 -50 8 0 17
-15 20 -35 4 -21 13 -35 21 -35 8 0 15 -9 15 -20 0 -11 7 -20 15 -20 10 0 15
-11 15 -35 0 -28 4 -35 20 -35 17 0 20 -7 20 -50 0 -36 4 -50 14 -50 8 0 17
-15 20 -35 4 -21 13 -35 21 -35 11 0 15 -12 15 -40 0 -29 4 -40 15 -40 16 0
22 -55 16 -152 l-2 -48 55 0 c49 0 56 -2 56 -20 0 -13 7 -20 20 -20 16 0 20
-7 20 -35 0 -24 5 -35 15 -35 12 0 15 -13 15 -55 0 -41 4 -55 15 -55 8 0 17
-14 21 -35 3 -20 12 -35 20 -35 10 0 14 -15 14 -55 0 -40 4 -55 14 -55 15 0
26 -30 26 -72 0 -18 5 -28 15 -28 12 0 15 -14 15 -65 0 -48 3 -65 14 -65 13 0
26 -41 26 -86 0 -15 6 -24 15 -24 12 0 15 -14 15 -69 0 -60 2 -69 20 -74 16
-4 20 -14 20 -51 0 -34 4 -46 15 -46 12 0 15 -15 15 -75 0 -68 2 -75 20 -75
18 0 20 -7 20 -70 0 -56 3 -70 15 -70 12 0 15 -16 15 -84 0 -75 2 -84 20 -89
15 -4 20 -14 20 -41 l0 -36 50 0 c43 0 50 3 50 20 0 13 7 20 20 20 17 0 20 7
20 50 0 38 4 50 15 50 8 0 15 9 15 20 0 18 7 20 55 20 l55 0 0 35 c0 33 2 35
35 35 24 0 35 5 35 15 0 8 7 15 15 15 8 0 15 9 15 20 0 13 7 20 20 20 11 0 20
7 20 15 0 8 7 15 15 15 8 0 15 9 15 20 0 18 7 20 55 20 l55 0 0 50 0 50 70 0
c63 0 70 2 70 20 0 13 7 20 20 20 11 0 20 7 20 15 0 8 7 15 15 15 8 0 15 9 15
20 0 16 7 20 30 20 23 0 30 -4 30 -20 0 -17 7 -20 40 -20 33 0 40 3 40 20 0
18 7 20 55 20 42 0 55 3 55 15 0 10 11 15 35 15 28 0 35 4 35 20 0 16 7 20 35
20 24 0 35 5 35 15 0 8 7 15 15 15 8 0 15 9 15 20 0 18 7 20 55 20 l55 0 0 55
c0 48 -2 55 -20 55 -18 0 -20 7 -20 65 0 58 2 65 20 65 27 0 27 40 1 47 -17 4
-20 17 -23 121 -2 81 -7 117 -15 120 -26 8 -13 32 17 32 23 0 30 4 30 20 0 16
-7 20 -35 20 -24 0 -35 5 -35 15 0 12 13 15 55 15 l55 0 0 59 c0 78 -9 121
-26 121 -11 0 -14 17 -14 70 0 53 -3 70 -14 70 -10 0 -15 20 -18 81 -2 64 -7
83 -21 90 -13 8 -17 24 -17 74 0 51 -3 65 -15 65 -10 0 -15 10 -15 33 0 47
-10 77 -26 77 -10 0 -14 15 -14 55 0 42 -3 55 -15 55 -11 0 -15 12 -15 50 0
36 -4 50 -14 50 -16 0 -26 30 -26 78 0 22 -5 32 -15 32 -11 0 -15 12 -15 50 0
43 -3 50 -20 50 -17 0 -20 7 -20 50 0 38 -4 50 -15 50 -9 0 -15 9 -15 24 0 45
-13 86 -26 86 -9 0 -14 12 -14 35 0 24 -5 35 -15 35 -10 0 -15 10 -15 28 0 42
-11 72 -26 72 -10 0 -14 13 -14 40 0 29 -4 40 -15 40 -10 0 -15 10 -15 28 0
42 -11 72 -26 72 -10 0 -14 14 -14 50 0 38 -4 50 -15 50 -11 0 -15 11 -15 36
0 27 -5 37 -20 41 -17 4 -20 14 -20 54 0 36 -4 49 -15 49 -10 0 -16 16 -21 50
-4 32 -11 50 -20 50 -10 0 -14 13 -14 40 0 28 -4 40 -14 40 -10 0 -16 19 -21
65 -5 45 -12 65 -21 65 -11 0 -14 17 -14 70 0 53 -3 70 -14 70 -15 0 -26 43
-26 106 0 32 -4 44 -15 44 -12 0 -15 17 -15 90 0 71 -3 90 -14 90 -25 0 -29
187 -22 1095 7 943 2 1215 -21 1215 -10 0 -13 23 -13 100 0 78 -3 100 -14 100
-15 0 -26 43 -26 106 0 32 -4 44 -15 44 -12 0 -15 14 -15 70 0 53 -3 70 -14
70 -15 0 -26 30 -26 73 0 17 -5 27 -15 27 -12 0 -15 13 -15 55 0 40 -4 55 -14
55 -13 0 -26 41 -26 86 0 15 -6 24 -15 24 -11 0 -15 12 -15 50 0 43 -3 50 -20
50 -16 0 -20 7 -20 35 0 24 -5 35 -15 35 -11 0 -15 12 -15 50 0 43 -3 50 -20
50 -16 0 -20 7 -20 35 0 24 -5 35 -15 35 -10 0 -15 11 -15 35 0 23 -5 35 -14
35 -15 0 -26 30 -26 73 0 17 -5 27 -15 27 -11 0 -15 11 -15 40 0 33 -3 40 -20
40 -16 0 -20 7 -20 35 0 24 -5 35 -15 35 -10 0 -15 11 -15 35 0 23 -5 35 -14
35 -15 0 -26 30 -26 72 0 21 -6 28 -30 33 -31 7 -42 25 -15 25 22 0 18 37 -5
43 -15 4 -20 14 -20 36 0 21 -5 31 -15 31 -11 0 -15 11 -15 40 0 27 -4 40 -14
40 -15 0 -26 30 -26 73 0 17 -5 27 -15 27 -10 0 -15 11 -15 35 0 23 -5 35 -14
35 -15 0 -26 30 -26 73 0 17 -5 27 -15 27 -11 0 -15 11 -15 40 0 27 -4 40 -14
40 -15 0 -26 30 -26 73 0 17 -5 27 -15 27 -10 0 -15 11 -15 35 0 24 -5 35 -15
35 -8 0 -17 14 -21 35 -3 20 -12 35 -20 35 -10 0 -14 14 -14 49 0 40 -3 50
-20 54 -15 4 -20 14 -20 36 0 21 -5 31 -15 31 -11 0 -15 11 -15 40 0 27 -4 40
-14 40 -15 0 -26 30 -26 73 0 17 -5 27 -15 27 -10 0 -15 11 -15 35 0 23 -5 35
-14 35 -15 0 -26 30 -26 73 0 17 -5 27 -15 27 -10 0 -15 10 -15 34 0 25 -5 35
-20 39 -17 4 -20 14 -20 56 0 39 -4 51 -15 51 -8 0 -15 9 -15 20 0 13 -7 20
-20 20 -11 0 -20 7 -20 15 0 13 -46 15 -350 15 -304 0 -350 -2 -350 -15 0 -12
-20 -15 -120 -15 -100 0 -120 3 -120 15 0 13 -383 15 -3385 15 -3378 0 -3385
0 -3385 -20z m7854 -1335 c4 -12 26 -15 106 -15 93 0 100 -1 100 -20 0 -13 7
-20 20 -20 11 0 20 -7 20 -15 0 -8 6 -15 14 -15 7 0 16 -9 19 -20 4 -15 14
-20 36 -20 24 0 31 4 31 20 0 13 7 20 20 20 16 0 20 -7 20 -36 0 -30 -3 -36
-18 -32 -15 4 -18 1 -14 -19 4 -20 9 -23 32 -18 25 6 28 3 34 -29 7 -35 36
-52 36 -21 0 8 9 15 20 15 11 0 20 -7 20 -15 0 -8 -9 -15 -20 -15 -17 0 -20
-7 -20 -50 0 -39 -3 -50 -16 -50 -9 0 -18 -9 -21 -20 -3 -11 -12 -20 -19 -20
-9 0 -14 -12 -14 -35 l0 -35 -49 0 c-52 0 -61 -10 -61 -72 0 -21 -6 -28 -30
-33 -16 -4 -30 -13 -30 -21 0 -8 -9 -14 -20 -14 -11 0 -20 -7 -20 -15 0 -10
-16 -16 -50 -21 -32 -4 -50 -11 -50 -20 0 -8 -9 -14 -20 -14 -11 0 -20 -7 -20
-15 0 -10 -11 -15 -35 -15 -28 0 -35 -4 -35 -20 0 -13 -7 -20 -20 -20 -11 0
-20 -7 -20 -15 0 -8 -14 -17 -35 -21 -20 -3 -35 -12 -35 -20 0 -9 -12 -14 -35
-14 -23 0 -35 -5 -35 -14 0 -15 -30 -26 -72 -26 -21 0 -28 -5 -28 -20 0 -11
-7 -20 -15 -20 -8 0 -15 -7 -15 -15 0 -8 7 -15 15 -15 8 0 15 -6 15 -13 0 -11
-79 -15 -425 -20 -234 -3 -486 -3 -560 0 l-135 6 0 28 c0 19 5 29 15 29 8 0
15 9 15 20 0 13 7 20 20 20 16 0 20 -7 20 -35 0 -24 5 -35 15 -35 10 0 15 11
15 35 0 24 -5 35 -15 35 -8 0 -15 9 -15 20 0 13 7 20 20 20 11 0 20 7 20 15 0
8 7 15 15 15 8 0 15 7 15 15 0 8 7 15 16 15 9 0 18 9 21 20 3 11 12 20 19 20
8 0 14 7 14 15 0 8 7 15 16 15 9 0 18 9 21 20 3 11 12 20 19 20 9 0 14 12 14
35 l0 35 49 0 c48 0 49 1 55 35 6 29 11 35 33 35 26 0 73 36 73 58 0 6 9 12
20 12 11 0 20 7 20 15 0 8 14 17 35 21 20 3 35 12 35 20 0 8 7 14 15 14 8 0
15 7 15 15 0 14 18 20 48 16 8 -1 16 7 19 17 3 13 17 22 39 27 20 3 34 12 34
20 0 8 9 15 20 15 11 0 20 7 20 15 0 10 10 15 29 15 20 0 30 6 34 20 3 11 12
20 21 20 9 0 16 7 16 15 0 11 12 15 50 15 36 0 52 4 56 15 4 9 19 15 36 15 21
0 31 6 35 20 3 11 12 20 19 20 8 0 14 7 14 15 0 9 9 15 24 15 45 0 86 13 86
26 0 11 20 14 85 14 69 0 85 3 85 15 0 8 6 15 14 15 8 0 16 -7 20 -15z"/>
<path d="M16828 22762 c-10 -2 -18 -10 -18 -18 0 -8 -7 -14 -15 -14 -12 0 -15
-17 -15 -90 0 -70 -3 -90 -14 -90 -31 0 -36 -641 -6 -660 10 -6 16 -34 18 -90
3 -55 8 -80 17 -80 8 0 14 -21 18 -55 3 -30 13 -62 21 -71 9 -9 16 -32 16 -55
0 -26 4 -39 14 -39 9 0 15 -16 19 -47 3 -27 11 -50 21 -55 11 -6 16 -23 16
-53 0 -33 4 -45 15 -45 11 0 15 -11 15 -36 0 -27 5 -37 20 -41 15 -4 20 -14
20 -39 0 -24 5 -34 15 -34 10 0 15 -10 15 -27 0 -43 11 -73 26 -73 9 0 14 -12
14 -35 0 -23 5 -35 14 -35 8 0 17 -15 20 -35 l7 -35 64 0 c58 0 65 2 65 20 0
11 -7 20 -15 20 -8 0 -15 7 -15 15 0 8 7 15 15 15 13 0 15 22 15 140 0 118 -2
140 -15 140 -12 0 -15 14 -15 70 0 56 -3 70 -15 70 -11 0 -15 12 -15 50 0 38
4 50 15 50 8 0 15 9 15 20 0 11 -7 20 -15 20 -12 0 -15 20 -15 118 0 199 -11
342 -27 342 -10 0 -13 29 -13 140 0 118 -2 140 -15 140 -10 0 -15 10 -15 31 0
22 -5 32 -20 36 -18 5 -20 14 -20 109 0 84 -3 104 -15 104 -8 0 -17 14 -21 35
-6 32 -9 35 -40 35 -24 0 -34 5 -34 15 0 11 11 15 40 15 29 0 40 4 40 15 0 9
-9 15 -24 15 -45 0 -86 13 -86 26 0 9 -12 14 -34 14 -25 0 -35 5 -38 18 -2 11
-10 16 -20 14z"/>
<path d="M15650 22345 c0 -24 -5 -35 -15 -35 -8 0 -15 -7 -15 -15 0 -8 -7 -15
-16 -15 -9 0 -18 -9 -21 -20 -3 -11 -12 -20 -19 -20 -11 0 -14 -19 -14 -85 0
-71 3 -85 16 -85 9 0 18 -9 21 -20 3 -11 12 -20 19 -20 9 0 14 -12 14 -35 0
-24 5 -35 15 -35 8 0 15 -9 15 -20 0 -13 7 -20 20 -20 11 0 20 -7 20 -15 0 -8
7 -15 15 -15 11 0 15 -11 15 -37 0 -77 12 -143 26 -143 10 0 14 -15 14 -55 0
-42 3 -55 15 -55 12 0 15 -14 15 -62 0 -77 8 -108 26 -108 11 0 14 -17 14 -70
0 -56 3 -70 15 -70 12 0 15 -18 15 -100 0 -82 -3 -100 -15 -100 -12 0 -15 -14
-15 -69 0 -76 -5 -81 -77 -81 -22 0 -33 -5 -33 -14 0 -11 21 -15 87 -18 57 -2
88 -7 91 -16 4 -14 29 -16 34 -3 2 5 68 10 148 11 80 1 191 5 248 7 l102 5 0
85 c0 76 -2 85 -20 90 -18 5 -20 14 -20 74 0 52 -3 69 -14 69 -15 0 -26 30
-26 73 0 17 -5 27 -15 27 -12 0 -15 17 -15 90 0 73 -3 90 -15 90 -10 0 -15 10
-15 31 0 22 -5 32 -20 36 -18 5 -20 14 -20 74 0 55 -3 69 -15 69 -10 0 -15 10
-15 31 0 22 -5 32 -20 36 -25 7 -26 20 -2 26 16 4 16 5 0 6 -11 1 -18 9 -18
21 0 11 -7 20 -15 20 -10 0 -15 10 -15 28 0 42 -11 72 -26 72 -8 0 -14 9 -14
20 0 11 -7 20 -15 20 -10 0 -15 11 -15 35 0 28 -4 35 -20 35 -11 0 -20 7 -20
15 0 8 -6 15 -14 15 -8 0 -17 15 -20 35 -4 21 -13 35 -21 35 -10 0 -15 11 -15
35 l0 35 -50 0 c-37 0 -50 4 -50 14 0 8 8 17 18 19 9 3 0 5 -20 6 -27 1 -38 6
-38 16 0 8 -6 15 -14 15 -7 0 -16 9 -19 20 -3 11 -12 20 -21 20 -9 0 -16 7
-16 15 0 12 -13 15 -55 15 l-55 0 0 -35z"/>
<path d="M20420 16650 c0 -16 7 -20 35 -20 24 0 35 -5 35 -15 0 -8 -7 -15 -15
-15 -8 0 -15 -9 -15 -20 0 -16 7 -20 35 -20 36 0 36 0 29 -35 -5 -31 -4 -35
15 -35 17 0 21 -6 21 -35 0 -24 5 -35 15 -35 8 0 17 -14 21 -35 3 -20 12 -35
20 -35 8 0 14 -9 14 -20 0 -11 7 -20 15 -20 8 0 17 -14 21 -35 3 -19 12 -35
19 -35 8 0 15 -14 17 -32 4 -38 38 -55 38 -19 0 17 6 21 30 21 23 0 30 -4 30
-20 0 -11 -7 -20 -15 -20 -10 0 -15 -11 -15 -35 0 -24 5 -35 15 -35 8 0 15 -7
15 -15 0 -8 9 -15 20 -15 13 0 20 -7 20 -20 0 -11 7 -20 15 -20 8 0 15 -7 15
-15 0 -8 9 -15 20 -15 16 0 20 -7 20 -35 0 -23 5 -35 14 -35 8 0 17 -15 20
-35 4 -21 13 -35 21 -35 10 0 15 -11 15 -35 0 -23 5 -35 14 -35 16 0 26 -30
26 -77 0 -23 5 -33 15 -33 8 0 15 -7 15 -15 0 -8 9 -15 20 -15 13 0 20 -7 20
-20 0 -11 7 -20 15 -20 11 0 15 11 15 40 0 27 -4 40 -14 40 -9 0 -16 18 -20
50 -5 34 -11 50 -21 50 -11 0 -15 13 -15 50 0 39 -3 50 -16 50 -9 0 -18 9 -21
20 -3 11 -12 20 -19 20 -10 0 -14 14 -14 50 0 43 -3 50 -20 50 -13 0 -20 7
-20 20 0 11 -7 20 -15 20 -8 0 -15 9 -15 20 0 11 -6 20 -14 20 -9 0 -16 18
-20 50 -5 34 -11 50 -21 50 -8 0 -15 7 -15 15 0 8 -7 15 -15 15 -8 0 -15 9
-15 20 0 11 -7 20 -15 20 -8 0 -17 14 -21 35 -4 25 -11 35 -25 35 -11 0 -19 7
-19 15 0 9 -12 18 -30 22 -30 6 -43 33 -15 33 27 0 16 27 -14 33 -22 5 -31 13
-36 37 -7 31 -39 43 -48 18 -2 -8 -8 -9 -13 -4 -5 5 -4 11 4 13 24 9 13 41
-17 48 -22 5 -31 14 -36 36 -4 16 -13 29 -21 29 -8 0 -14 9 -14 20 0 16 -7 20
-35 20 -28 0 -35 -4 -35 -20z"/>
<path d="M12990 15105 c0 -8 -9 -15 -20 -15 -37 0 -21 -28 20 -35 25 -4 40
-12 40 -21 0 -8 7 -14 15 -14 8 0 15 -9 15 -20 0 -11 7 -20 15 -20 8 0 15 -7
15 -15 0 -8 9 -15 20 -15 13 0 20 -7 20 -20 0 -11 7 -20 15 -20 8 0 15 -7 15
-15 0 -8 9 -15 20 -15 13 0 20 -7 20 -20 0 -16 7 -20 35 -20 32 0 35 -3 35
-29 0 -25 5 -30 35 -35 21 -4 35 -13 35 -21 0 -8 7 -15 15 -15 8 0 15 -9 15
-20 0 -13 7 -20 20 -20 11 0 20 -7 20 -15 0 -8 6 -15 14 -15 7 0 16 -9 19 -20
3 -11 12 -20 21 -20 9 0 16 -7 16 -15 0 -8 6 -15 14 -15 7 0 16 -9 19 -20 3
-11 12 -20 21 -20 12 0 16 -10 16 -35 0 -28 4 -35 20 -35 18 0 20 7 20 55 0
42 3 55 15 55 10 0 15 -11 15 -35 0 -28 4 -35 20 -35 16 0 20 7 20 35 0 24 5
35 14 35 11 0 16 -15 18 -52 2 -41 7 -54 21 -56 15 -3 17 9 17 137 0 124 2
140 18 144 16 4 16 5 0 6 -23 1 -26 61 -3 61 8 0 15 -7 15 -15 0 -10 11 -15
35 -15 24 0 35 5 35 15 0 8 -14 17 -35 21 -20 3 -35 12 -35 20 0 8 -6 14 -14
14 -8 0 -17 15 -20 35 -7 34 -8 35 -56 35 -38 0 -50 4 -50 15 0 11 -12 15 -50
15 -43 0 -50 3 -50 20 0 18 -7 20 -55 20 -42 0 -55 3 -55 15 0 11 -11 15 -42
15 -57 0 -88 9 -88 26 0 10 -15 14 -55 14 -42 0 -55 3 -55 15 0 12 -17 15 -90
15 -73 0 -90 -3 -90 -15z"/>
<path d="M5140 15076 c0 -19 -73 -26 -277 -26 -147 0 -173 -2 -173 -15 0 -12
-17 -15 -90 -15 -83 0 -90 -1 -90 -20 0 -16 -7 -20 -35 -20 -24 0 -35 -5 -35
-15 0 -13 24 -15 154 -15 145 0 154 -1 159 -20 4 -15 14 -20 36 -20 21 0 31
-5 31 -15 0 -8 9 -15 20 -15 11 0 20 -6 20 -14 0 -15 42 -26 101 -26 37 0 39
-2 39 -30 0 -28 2 -30 39 -30 59 0 101 -11 101 -26 0 -8 7 -14 15 -14 8 0 15
-9 15 -20 0 -13 7 -20 20 -20 11 0 20 -7 20 -15 0 -8 7 -15 15 -15 8 0 15 -6
15 -14 0 -8 15 -17 35 -20 31 -6 35 -10 35 -37 0 -22 6 -32 20 -36 15 -4 20
-14 20 -39 0 -34 0 -34 49 -34 48 0 49 -1 55 -35 4 -21 13 -35 21 -35 10 0 15
-11 15 -35 0 -33 2 -35 35 -35 28 0 35 -4 35 -20 0 -11 7 -20 15 -20 8 0 15
-7 15 -15 0 -10 10 -15 34 -15 31 0 34 -3 40 -35 7 -34 8 -35 56 -35 38 0 50
-4 50 -15 0 -8 -9 -15 -20 -15 -16 0 -20 -7 -20 -35 0 -24 -5 -35 -15 -35 -8
0 -15 -9 -15 -20 0 -13 7 -20 20 -20 11 0 20 7 20 15 0 11 12 15 50 15 l50 0
0 -35 c0 -24 5 -35 15 -35 8 0 15 -7 15 -15 0 -10 11 -15 35 -15 28 0 35 -4
35 -20 0 -13 7 -20 20 -20 11 0 20 -7 20 -15 0 -10 11 -15 35 -15 l35 0 0 -70
c0 -56 3 -70 15 -70 10 0 15 -11 15 -35 0 -28 4 -35 20 -35 16 0 20 -7 20 -35
0 -28 -4 -35 -20 -35 -20 0 -20 -7 -20 -280 0 -273 0 -280 20 -280 20 0 20 7
20 280 0 273 0 280 20 280 11 0 20 7 20 15 0 8 7 15 15 15 8 0 15 9 15 20 0
13 7 20 20 20 11 0 20 7 20 15 0 8 7 15 15 15 8 0 15 -7 15 -15 0 -12 14 -15
70 -15 63 0 70 2 70 20 0 16 7 20 35 20 24 0 35 5 35 15 0 8 9 15 20 15 11 0
20 7 20 15 0 8 9 15 20 15 13 0 20 7 20 20 0 11 7 20 15 20 8 0 15 7 15 15 0
11 12 15 49 15 46 0 49 1 55 31 3 17 6 42 6 55 0 15 6 24 15 24 8 0 15 7 15
15 0 8 9 15 20 15 13 0 20 7 20 20 0 11 7 20 15 20 8 0 15 6 15 14 0 7 9 16
20 19 11 3 20 12 20 21 0 9 7 16 15 16 8 0 15 7 15 15 0 8 7 15 15 15 8 0 15
9 15 19 0 30 11 51 26 51 9 0 14 12 14 35 0 24 5 35 15 35 12 0 15 15 15 75 0
60 -3 75 -15 75 -8 0 -15 7 -15 15 0 11 12 15 50 15 l50 0 0 140 c0 133 1 140
20 140 13 0 20 7 20 20 0 18 -7 20 -55 20 -42 0 -55 3 -55 15 0 10 10 15 33
15 47 0 77 10 77 26 0 10 -15 14 -55 14 -41 0 -55 4 -55 14 0 9 15 17 40 21
38 7 40 8 39 43 -1 24 -3 29 -6 15 -5 -28 -33 -30 -33 -3 0 16 -7 20 -35 20
-32 0 -35 2 -35 30 l0 30 -164 0 c-179 0 -226 5 -226 26 0 12 -113 14 -700 14
-584 0 -700 -2 -700 -14z"/>
<path d="M7410 14935 c0 -11 -12 -15 -50 -15 -43 0 -50 -3 -50 -20 0 -17 7
-20 40 -20 29 0 40 4 40 15 0 8 5 15 10 15 6 0 10 -7 10 -15 0 -10 11 -15 35
-15 24 0 35 -5 35 -15 0 -8 9 -15 20 -15 13 0 20 -7 20 -20 0 -13 -7 -20 -20
-20 -11 0 -20 -6 -20 -14 0 -8 -7 -16 -15 -20 -11 -4 -15 -22 -15 -70 0 -55 3
-64 20 -69 15 -4 20 -14 20 -36 0 -21 5 -31 15 -31 8 0 15 7 15 15 0 8 7 15
15 15 16 0 17 -12 15 -212 -1 -103 0 -108 19 -108 17 0 21 -6 21 -30 0 -22 -5
-30 -18 -30 -14 0 -17 -7 -14 -40 3 -25 9 -40 17 -40 8 0 16 -8 18 -17 3 -10
5 37 6 105 1 74 5 122 11 122 6 0 10 -53 10 -140 0 -133 1 -140 20 -140 18 0
20 -7 20 -70 0 -56 3 -70 15 -70 11 0 15 -12 15 -50 0 -38 -4 -50 -15 -50 -8
0 -15 -9 -15 -20 0 -11 7 -20 15 -20 8 0 15 -9 15 -20 0 -13 7 -20 20 -20 17
0 20 -7 20 -50 0 -38 4 -50 15 -50 8 0 15 -7 15 -15 0 -8 -7 -15 -15 -15 -12
0 -15 -13 -15 -55 0 -48 2 -55 20 -55 11 0 20 -7 20 -15 0 -8 7 -15 15 -15 8
0 15 -9 15 -20 0 -16 7 -20 35 -20 l35 0 0 -70 c0 -63 2 -70 20 -70 11 0 20
-7 20 -15 0 -8 14 -17 35 -21 20 -3 35 -12 35 -20 0 -8 7 -14 15 -14 8 0 15
-9 15 -20 0 -16 7 -20 35 -20 24 0 35 -5 35 -15 0 -12 13 -15 55 -15 l55 0 0
-35 c0 -33 2 -35 35 -35 33 0 35 -2 35 -35 0 -24 5 -35 15 -35 8 0 15 -9 15
-20 0 -16 7 -20 35 -20 33 0 35 -2 35 -35 l0 -35 70 0 c56 0 70 -3 70 -15 0
-12 13 -15 55 -15 48 0 55 -2 55 -20 0 -13 7 -20 20 -20 18 0 20 7 20 75 l0
75 -35 0 c-28 0 -35 4 -35 20 0 16 -7 20 -35 20 -24 0 -35 5 -35 15 0 8 -9 15
-20 15 -18 0 -20 7 -20 55 0 42 -3 55 -15 55 -8 0 -15 7 -15 15 0 12 -13 15
-55 15 -48 0 -55 2 -55 20 0 11 -7 20 -15 20 -10 0 -15 10 -15 30 0 20 5 30
15 30 10 0 15 11 15 35 0 24 5 35 15 35 8 0 15 -9 15 -20 0 -13 7 -20 20 -20
11 0 20 -7 20 -15 0 -8 7 -15 15 -15 8 0 15 -9 15 -20 0 -18 7 -20 55 -20 48
0 55 2 55 20 0 13 7 20 20 20 11 0 20 7 20 15 0 10 10 15 30 15 23 0 30 4 30
20 0 17 -7 20 -50 20 -38 0 -50 4 -50 15 0 8 9 15 20 15 16 0 20 7 20 35 0 32
2 35 30 35 20 0 30 -5 30 -15 0 -11 11 -15 40 -15 29 0 40 4 40 15 0 8 7 15
15 15 10 0 15 11 15 35 0 27 4 35 18 35 11 0 19 7 19 18 -1 90 4 122 18 122
12 0 15 13 15 60 0 47 -3 60 -15 60 -10 0 -15 10 -15 30 0 20 5 30 15 30 12 0
15 14 15 70 0 53 3 70 14 70 17 0 32 245 23 393 -6 92 -5 97 13 97 13 0 20 7
20 20 0 13 -7 20 -20 20 -16 0 -20 7 -20 35 0 32 -2 35 -30 35 -20 0 -30 5
-30 15 0 8 7 15 15 15 8 0 15 9 15 20 0 11 7 20 15 20 8 0 15 6 15 14 0 9 -18
16 -50 20 -34 5 -50 11 -50 21 0 8 -7 15 -15 15 -8 0 -15 7 -15 15 0 12 -16
15 -82 15 -96 0 -128 7 -128 26 0 11 -20 14 -90 14 -73 0 -90 3 -90 15 0 12
-16 15 -82 15 -96 0 -128 7 -128 26 0 11 -22 14 -105 14 -87 0 -105 3 -105 15
0 13 -21 15 -125 15 -118 0 -125 1 -125 20 0 11 -7 20 -15 20 -8 0 -15 -7 -15
-15 0 -11 -12 -15 -50 -15 -38 0 -50 4 -50 15 0 12 -13 15 -60 15 -47 0 -60
-3 -60 -15z"/>
<path d="M11630 14900 c0 -16 -7 -20 -35 -20 -23 0 -35 -5 -35 -14 0 -9 -15
-17 -40 -21 -25 -4 -40 -12 -40 -21 0 -10 -14 -14 -50 -14 -36 0 -50 4 -50 14
0 18 -39 28 -79 20 -43 -9 -41 -34 3 -34 25 0 35 -5 39 -20 4 -17 14 -20 56
-20 l51 0 0 -140 c0 -135 1 -140 21 -140 20 0 21 3 17 160 l-3 160 38 0 c26 0
37 4 37 15 0 8 14 17 35 21 20 3 35 12 35 20 0 8 7 14 15 14 8 0 15 9 15 20 0
11 -7 20 -15 20 -8 0 -15 -9 -15 -20z"/>
<path d="M2190 14565 c0 -24 -5 -35 -15 -35 -11 0 -15 -11 -15 -40 0 -29 4
-40 15 -40 8 0 15 -7 15 -15 0 -8 9 -15 20 -15 17 0 20 7 20 40 0 29 -4 40
-15 40 -8 0 -15 7 -15 15 0 13 22 15 140 15 l140 0 0 35 0 35 -145 0 -145 0 0
-35z"/>
<path d="M11520 14336 c0 -141 2 -166 15 -166 8 0 15 -7 15 -15 0 -8 9 -15 20
-15 11 0 20 -7 20 -15 0 -8 14 -17 35 -21 32 -6 35 -9 35 -40 0 -32 2 -34 35
-34 l35 0 0 -50 0 -50 35 0 c28 0 35 -4 35 -20 0 -13 7 -20 19 -20 14 0 18 -7
18 -32 -1 -18 0 -57 1 -85 2 -52 3 -53 32 -53 l30 0 0 70 c0 56 -3 70 -15 70
-8 0 -15 9 -15 20 0 11 -7 20 -15 20 -8 0 -15 9 -15 20 0 13 -7 20 -20 20 -16
0 -20 7 -20 35 0 24 -5 35 -15 35 -8 0 -15 7 -15 15 0 8 -9 15 -20 15 -16 0
-20 7 -20 35 0 24 -5 35 -15 35 -8 0 -15 9 -15 20 0 13 -7 20 -20 20 -16 0
-20 7 -20 35 0 23 -5 35 -14 35 -10 0 -16 20 -21 70 -5 50 -11 70 -21 70 -8 0
-14 7 -14 15 0 8 -7 15 -14 15 -11 0 -16 15 -18 52 -2 41 -7 54 -20 56 -17 3
-18 -10 -18 -162z"/>
<path d="M12010 13725 l0 -75 -35 0 c-28 0 -35 4 -35 20 0 13 -7 20 -20 20
-11 0 -20 -6 -20 -12 0 -30 13 -58 26 -58 9 0 14 -12 14 -34 0 -25 5 -35 20
-39 11 -3 20 -12 20 -21 0 -9 7 -16 15 -16 8 0 15 7 15 15 0 8 9 15 20 15 18
0 20 7 20 55 0 42 3 55 15 55 11 0 15 11 15 40 0 29 -4 40 -15 40 -10 0 -15
11 -15 35 0 28 -4 35 -20 35 -18 0 -20 -7 -20 -75z"/>
<path d="M10180 13514 c0 -145 0 -145 23 -142 19 3 22 10 25 51 3 47 16 63 25
30 3 -10 5 -1 6 20 1 35 2 37 36 37 l35 0 0 69 c0 79 -3 81 -97 81 l-53 0 0
-146z"/>
<path d="M12043 13408 c4 -62 7 -159 7 -215 l0 -103 35 0 35 0 0 140 c0 118 2
140 15 140 11 0 15 11 15 40 0 29 -4 40 -15 40 -8 0 -15 7 -15 15 0 8 -9 15
-20 15 -13 0 -20 7 -20 20 0 14 -7 20 -22 20 -21 0 -21 -2 -15 -112z"/>
<path d="M3847 13374 c-13 -13 -7 -44 8 -44 12 0 15 -16 15 -80 0 -47 -4 -80
-10 -80 -5 0 -10 16 -10 35 l0 35 -55 0 c-42 0 -55 3 -55 15 0 8 -9 15 -20 15
-11 0 -20 -7 -20 -15 0 -9 -9 -15 -21 -15 -18 0 -21 -4 -16 -28 9 -45 -3 -110
-22 -115 -14 -4 -14 -5 2 -6 12 -1 17 -10 17 -31 0 -27 -3 -30 -30 -30 -28 0
-30 3 -30 35 l0 35 -139 0 -139 0 -6 -35 c-7 -34 -8 -35 -56 -35 -43 0 -50 -3
-50 -20 0 -16 -7 -20 -35 -20 -24 0 -35 -5 -35 -15 0 -10 -11 -15 -35 -15 -28
0 -35 -4 -35 -20 0 -16 -7 -20 -35 -20 -23 0 -35 -5 -35 -14 0 -7 -9 -16 -20
-19 -11 -3 -20 -12 -20 -21 0 -11 -9 -16 -30 -16 -18 0 -33 -6 -36 -15 -4 -8
-12 -15 -20 -15 -8 0 -14 -8 -14 -19 0 -10 -9 -21 -20 -24 -15 -4 -20 -14 -20
-36 0 -21 -5 -31 -15 -31 -8 0 -15 -9 -15 -20 0 -18 -7 -20 -55 -20 -42 0 -55
-3 -55 -15 0 -8 -7 -15 -15 -15 -8 0 -15 -9 -15 -20 0 -13 -7 -20 -20 -20 -16
0 -20 -7 -20 -35 0 -33 -2 -35 -35 -35 -33 0 -35 -2 -35 -35 0 -24 -5 -35 -15
-35 -8 0 -15 -6 -15 -14 0 -7 -9 -16 -20 -19 -11 -3 -20 -12 -20 -21 0 -9 -7
-16 -15 -16 -8 0 -15 -6 -15 -14 0 -7 -9 -16 -20 -19 -11 -3 -20 -12 -20 -21
0 -9 -7 -16 -15 -16 -10 0 -15 -11 -15 -35 0 -33 -2 -35 -35 -35 -33 0 -35 -2
-35 -35 0 -28 -4 -35 -20 -35 -11 0 -20 -7 -20 -15 0 -8 -7 -15 -15 -15 -8 0
-15 -9 -15 -20 0 -13 -7 -20 -20 -20 -16 0 -20 -7 -20 -35 0 -33 -2 -35 -35
-35 -24 0 -35 -5 -35 -15 0 -10 -10 -15 -31 -15 -22 0 -32 -5 -36 -20 -3 -11
-12 -20 -19 -20 -9 0 -14 -12 -14 -35 l0 -35 -50 0 c-48 0 -49 -1 -56 -35 -6
-32 -9 -35 -40 -35 -24 0 -34 -5 -34 -15 0 -8 -7 -15 -15 -15 -11 0 -15 -11
-15 -40 0 -44 -9 -48 -79 -34 -28 6 -31 10 -28 33 2 14 2 20 0 14 -3 -7 -11
-13 -19 -13 -9 0 -14 -11 -14 -35 0 -24 5 -35 15 -35 8 0 15 -7 15 -15 0 -8
-7 -15 -15 -15 -13 0 -15 -40 -15 -300 0 -246 2 -300 14 -300 15 0 26 -68 26
-172 l0 -68 35 0 c19 0 35 5 35 10 0 6 7 10 15 10 8 0 15 -4 15 -10 0 -5 16
-10 35 -10 19 0 35 5 35 10 0 6 7 10 15 10 8 0 15 -4 15 -10 0 -5 9 -10 20
-10 11 0 20 7 20 15 0 13 22 15 140 15 133 0 140 1 140 20 0 13 7 20 20 20 16
0 20 7 20 30 0 20 5 30 15 30 8 0 15 -7 15 -15 0 -10 11 -15 35 -15 24 0 35
-5 35 -15 0 -10 11 -15 35 -15 24 0 35 5 35 15 0 12 13 15 55 15 40 0 55 4 55
14 0 15 45 30 60 21 6 -4 10 -13 10 -21 0 -8 7 -14 15 -14 8 0 15 6 15 14 0
15 30 26 73 26 17 0 27 5 27 15 0 12 14 15 69 15 58 0 70 -3 74 -17 4 -17 5
-17 6 0 1 14 10 17 51 17 38 0 50 4 50 15 0 8 9 15 20 15 13 0 20 7 20 20 0
13 -7 20 -20 20 -13 0 -20 -7 -20 -20 0 -18 -7 -20 -64 -20 -34 0 -91 3 -125
6 -61 7 -62 8 -56 33 4 14 8 27 9 28 1 2 41 6 89 9 63 5 87 11 87 20 0 8 -9
14 -20 14 -11 0 -20 6 -20 14 0 7 9 16 20 19 15 4 20 14 20 36 0 17 5 31 10
31 6 0 10 -7 10 -15 0 -11 11 -15 40 -15 33 0 40 3 40 20 0 16 -7 20 -35 20
-24 0 -35 5 -35 15 0 10 11 15 35 15 33 0 35 2 35 35 0 24 5 35 15 35 8 0 15
-7 15 -15 0 -8 9 -15 20 -15 11 0 20 7 20 15 0 8 7 15 15 15 8 0 15 9 15 20 0
11 -7 20 -15 20 -8 0 -15 7 -15 15 0 8 9 15 20 15 16 0 20 7 20 35 0 19 5 35
10 35 6 0 10 -7 10 -15 0 -8 9 -15 20 -15 11 0 20 7 20 15 0 8 -7 15 -15 15
-8 0 -15 7 -15 15 0 8 7 15 15 15 8 0 15 -7 15 -15 0 -8 9 -15 20 -15 13 0 20
7 20 20 0 11 -7 20 -15 20 -8 0 -15 7 -15 15 0 8 7 15 15 15 10 0 15 11 15 35
0 33 2 35 35 35 33 0 35 -2 35 -35 0 -33 2 -35 35 -35 28 0 35 4 35 20 0 11 7
20 15 20 8 0 15 7 15 15 0 8 9 15 20 15 16 0 20 7 20 35 0 24 -5 35 -15 35
-10 0 -15 11 -15 35 0 24 5 35 15 35 8 0 15 7 15 15 0 8 9 15 20 15 13 0 20 7
20 20 0 11 7 20 15 20 8 0 15 7 15 15 0 9 9 15 24 15 13 0 38 3 55 6 26 6 31
11 31 35 0 16 5 29 10 29 6 0 10 -7 10 -15 0 -8 9 -15 20 -15 12 0 20 7 20 16
0 9 9 18 20 21 11 3 20 12 20 19 0 8 9 14 20 14 11 0 20 7 20 15 0 8 7 15 15
15 8 0 15 9 15 20 0 16 7 20 35 20 33 0 35 2 35 35 0 33 2 35 35 35 24 0 35 5
35 15 0 8 7 15 15 15 8 0 15 -7 15 -15 0 -8 7 -15 15 -15 12 0 15 -14 15 -70
0 -56 -3 -70 -15 -70 -8 0 -15 -9 -15 -20 0 -18 7 -20 55 -20 l55 0 0 55 c0
42 -3 55 -15 55 -10 0 -15 11 -15 35 0 28 -4 35 -20 35 -20 0 -20 7 -20 280 0
242 -2 280 -15 280 -11 0 -15 12 -15 50 0 38 4 50 15 50 8 0 15 9 15 20 0 13
7 20 20 20 17 0 20 7 20 40 l0 40 -90 0 -90 0 0 70 c0 56 -3 70 -15 70 -10 0
-15 10 -15 30 0 28 3 30 35 30 l35 0 0 140 c0 105 -3 140 -12 140 -7 0 -22 3
-33 6 -11 3 -24 2 -28 -2z"/>
<path d="M6150 13095 c0 -278 0 -285 20 -285 19 0 20 7 20 140 0 133 1 140 20
140 19 0 20 7 20 145 l0 145 -40 0 -40 0 0 -285z"/>
<path d="M9660 12970 c0 -11 7 -20 15 -20 11 0 15 -12 15 -50 0 -38 -4 -50
-15 -50 -8 0 -15 -9 -15 -20 0 -19 5 -21 73 -18 l72 3 3 38 c3 32 0 37 -17 37
-18 0 -21 6 -21 50 l0 50 -55 0 c-48 0 -55 -2 -55 -20z"/>
<path d="M9482 12690 c2 -80 4 -90 20 -90 10 0 18 6 18 14 0 8 15 17 35 20 34
7 35 8 35 56 0 43 3 50 20 50 13 0 20 7 20 20 0 18 -7 20 -75 20 l-75 0 2 -90z"/>
<path d="M28760 12725 c0 -12 -27 -15 -157 -17 -141 -3 -158 -5 -161 -20 -3
-17 11 -18 177 -18 l181 0 0 35 c0 28 -4 35 -20 35 -11 0 -20 -7 -20 -15z"/>
<path d="M5980 12655 c0 -48 -2 -55 -20 -55 -16 0 -20 -7 -20 -35 0 -24 -5
-35 -15 -35 -8 0 -15 -9 -15 -20 0 -11 7 -20 15 -20 10 0 15 -10 15 -30 0 -20
-5 -30 -15 -30 -8 0 -15 -9 -15 -20 0 -11 7 -20 15 -20 8 0 15 -9 15 -20 0
-13 7 -20 20 -20 17 0 20 -7 20 -50 l0 -50 35 0 c28 0 35 4 35 20 0 11 -7 20
-15 20 -10 0 -15 10 -15 30 0 20 5 30 15 30 8 0 15 9 15 20 0 11 -7 20 -15 20
-8 0 -15 9 -15 20 0 13 -7 20 -20 20 -17 0 -20 7 -20 50 l0 50 35 0 35 0 0 70
c0 56 -3 70 -15 70 -8 0 -15 9 -15 20 0 13 -7 20 -20 20 -18 0 -20 -7 -20 -55z"/>
<path d="M25250 12595 c0 -24 -5 -35 -15 -35 -8 0 -15 -7 -15 -15 0 -8 7 -15
15 -15 8 0 15 -6 15 -14 0 -8 -7 -16 -15 -20 -12 -4 -15 -24 -15 -91 0 -69 3
-85 15 -85 12 0 15 -14 15 -67 0 -105 11 -173 26 -173 8 0 14 -9 14 -20 0 -11
7 -20 15 -20 9 0 15 -9 15 -24 0 -45 13 -86 26 -86 8 0 14 -7 14 -15 0 -10 11
-15 35 -15 33 0 35 -2 35 -35 0 -24 5 -35 15 -35 8 0 17 -14 21 -35 3 -20 12
-35 20 -35 8 0 14 -7 14 -15 0 -8 14 -17 35 -21 20 -3 35 -12 35 -20 0 -9 12
-14 35 -14 33 0 35 -2 35 -35 0 -24 5 -35 15 -35 8 0 15 -6 15 -14 0 -13 41
-26 86 -26 21 0 24 -5 24 -35 0 -24 5 -35 15 -35 8 0 15 -7 15 -15 0 -8 9 -15
20 -15 16 0 20 -7 20 -35 0 -33 2 -35 35 -35 33 0 35 -2 35 -35 0 -24 5 -35
15 -35 8 0 15 -9 15 -20 0 -13 7 -20 20 -20 16 0 20 -7 20 -35 0 -24 5 -35 15
-35 10 0 15 -11 15 -35 0 -28 4 -35 20 -35 11 0 20 -7 20 -15 0 -8 -9 -15 -20
-15 -11 0 -20 -7 -20 -15 0 -12 15 -15 73 -15 108 0 177 -10 177 -26 0 -12 70
-14 405 -14 338 0 405 2 405 14 0 7 -9 16 -20 19 -11 3 -20 12 -20 21 0 9 -7
16 -15 16 -8 0 -15 6 -15 14 0 8 -15 17 -35 20 -21 4 -35 13 -35 21 0 8 -7 15
-15 15 -8 0 -15 7 -15 15 0 8 -9 15 -20 15 -13 0 -20 7 -20 20 0 13 -7 20 -20
20 -11 0 -20 6 -20 14 0 8 -13 17 -30 21 -16 4 -30 13 -30 21 0 8 -9 14 -20
14 -11 0 -20 7 -20 15 0 8 -9 15 -20 15 -13 0 -20 7 -20 20 0 11 -7 20 -15 20
-8 0 -15 7 -15 15 0 8 -9 15 -20 15 -13 0 -20 7 -20 20 0 11 -7 20 -15 20 -8
0 -15 7 -15 15 0 8 -9 15 -20 15 -13 0 -20 7 -20 20 0 11 -7 20 -15 20 -8 0
-15 6 -15 14 0 7 -9 16 -20 19 -11 3 -20 12 -20 21 0 9 -7 16 -15 16 -10 0
-15 11 -15 35 0 28 -4 35 -20 35 -11 0 -20 7 -20 15 0 8 -7 15 -15 15 -8 0
-15 9 -15 20 0 11 -7 20 -15 20 -8 0 -17 14 -21 35 -3 20 -12 35 -20 35 -9 0
-14 12 -14 35 0 28 -4 35 -20 35 -13 0 -20 7 -20 20 0 11 -6 20 -14 20 -8 0
-17 13 -21 29 -3 16 -13 32 -21 35 -8 3 -14 19 -14 36 0 19 -5 30 -14 30 -9 0
-17 15 -21 40 -4 25 -12 40 -21 40 -9 0 -14 12 -14 35 0 24 -5 35 -14 35 -8 0
-18 14 -21 33 -4 17 -12 35 -17 38 -6 4 -13 27 -15 53 -4 30 -10 46 -19 46 -9
0 -14 12 -14 35 0 23 -5 35 -14 35 -15 0 -26 30 -26 73 0 17 -5 27 -15 27 -8
0 -15 9 -15 20 0 19 -7 20 -180 20 -153 0 -180 2 -180 15 0 13 -26 15 -175 15
l-175 0 0 -35z"/>
<path d="M12080 12165 c0 -78 -2 -85 -20 -85 -18 0 -20 -7 -20 -55 0 -42 -3
-55 -15 -55 -12 0 -15 -14 -15 -70 0 -63 2 -70 20 -70 16 0 20 7 20 35 0 24 5
35 15 35 10 0 15 11 15 35 0 23 5 35 14 35 16 0 26 70 26 193 0 80 -2 87 -20
87 -18 0 -20 -7 -20 -85z"/>
<path d="M4120 11850 c0 -43 3 -50 20 -50 11 0 20 7 20 15 0 12 14 15 65 15
58 0 65 -2 65 -20 0 -16 7 -20 35 -20 24 0 35 -5 35 -15 0 -10 11 -15 35 -15
28 0 35 -4 35 -20 0 -17 7 -20 40 -20 33 0 40 3 40 20 0 16 -7 20 -35 20 -33
0 -35 2 -35 35 l0 35 -70 0 c-63 0 -70 2 -70 20 0 16 -7 20 -35 20 -24 0 -35
5 -35 15 0 12 -13 15 -55 15 l-55 0 0 -50z"/>
<path d="M5350 11815 c0 -12 -14 -15 -70 -15 -63 0 -70 -2 -70 -20 0 -16 -7
-20 -35 -20 -24 0 -35 -5 -35 -15 0 -13 -30 -15 -210 -15 -203 0 -210 -1 -210
-20 0 -20 7 -20 280 -20 l280 0 0 35 c0 33 2 35 35 35 24 0 35 5 35 15 0 8 9
15 20 15 13 0 20 7 20 20 0 13 -7 20 -20 20 -11 0 -20 -7 -20 -15z"/>
<path d="M4300 11675 c0 -8 7 -15 15 -15 8 0 15 -9 15 -20 0 -16 7 -20 35 -20
24 0 35 -5 35 -15 0 -8 9 -15 20 -15 11 0 20 7 20 15 0 12 14 15 70 15 63 0
70 2 70 20 0 11 -7 20 -15 20 -8 0 -15 7 -15 15 0 13 -21 15 -125 15 -104 0
-125 -2 -125 -15z"/>
<path d="M11970 11640 c0 -38 -4 -50 -15 -50 -10 0 -15 -11 -15 -35 0 -28 -4
-35 -20 -35 -18 0 -20 -7 -20 -55 l0 -55 40 0 40 0 0 85 c0 69 3 85 15 85 10
0 15 -11 15 -35 0 -28 4 -35 20 -35 13 0 20 7 20 20 0 11 7 20 15 20 12 0 15
14 15 70 l0 70 -55 0 -55 0 0 -50z"/>
<path d="M3864 9870 c-482 -33 -904 -192 -1274 -478 -101 -79 -302 -277 -386
-382 -267 -332 -439 -709 -518 -1140 -46 -245 -46 -247 -46 -2442 l0 -2078
950 0 950 0 0 830 0 830 315 0 315 0 0 855 0 855 -316 0 -315 0 3 493 c4 474
5 495 26 565 46 150 106 233 205 281 81 40 177 55 262 41 169 -27 276 -110
357 -278 l40 -82 46 34 c1069 778 1507 1100 1507 1107 0 19 -175 216 -291 328
-377 365 -819 583 -1304 645 -153 19 -377 26 -526 16z"/>
<path d="M8530 9870 c-661 -49 -1309 -362 -1707 -824 -334 -388 -481 -781
-523 -1394 -6 -99 -10 -889 -10 -2228 l0 -2074 950 0 950 0 3 2163 c2 2051 3
2165 21 2221 43 143 113 233 221 283 57 27 67 28 205 28 179 -1 235 -18 316
-99 76 -77 98 -140 98 -286 0 -139 -20 -201 -90 -279 -80 -89 -247 -151 -409
-151 l-65 0 0 -840 0 -840 128 -2 c70 -2 190 -2 267 0 572 12 1027 141 1364
390 219 160 436 429 559 692 233 496 265 1182 81 1734 -238 718 -881 1295
-1619 1455 -217 46 -518 67 -740 51z"/>
<path d="M13530 9864 c-448 -60 -827 -248 -1169 -579 -365 -353 -578 -762
-647 -1242 -23 -159 -23 -473 0 -643 55 -408 170 -729 424 -1190 131 -238 208
-411 227 -511 9 -51 -11 -154 -45 -225 -78 -161 -294 -283 -503 -284 -115 0
-274 51 -409 130 -36 22 -69 40 -72 40 -3 0 -6 -407 -6 -904 l0 -905 58 -26
c149 -69 373 -133 557 -160 143 -21 439 -21 599 0 517 68 937 281 1303 659
402 414 595 894 595 1476 0 481 -110 830 -450 1427 -136 238 -192 358 -217
465 -31 130 -11 279 50 384 42 72 138 167 204 203 142 76 268 79 481 12 36
-12 66 -21 68 -21 1 0 2 402 2 894 l0 894 -112 31 c-150 41 -240 60 -378 77
-142 17 -421 17 -560 -2z"/>
<path d="M25082 8225 c-238 -93 -611 -349 -796 -545 -171 -181 -200 -306 -84
-356 35 -14 78 -19 226 -22 146 -3 182 -7 178 -17 -15 -40 -28 -235 -23 -345
20 -444 224 -803 506 -890 145 -45 307 -18 436 75 204 145 337 443 361 810 6
89 -7 277 -23 342 l-5 23 237 2 236 3 -60 118 c-83 165 -198 333 -294 431
-136 139 -248 196 -383 196 l-72 0 -12 38 c-19 57 -56 100 -113 129 -44 23
-67 27 -152 30 -87 3 -108 0 -163 -22z m603 -1025 c3 -5 9 -63 12 -127 13
-260 -58 -524 -185 -693 -84 -110 -212 -180 -306 -166 -197 30 -368 272 -421
596 -15 98 -20 256 -9 348 l7 52 448 0 c282 0 450 -4 454 -10z"/>
<path d="M22964 8105 c-465 -101 -713 -778 -481 -1314 94 -219 273 -386 463
-435 404 -104 801 282 830 808 11 194 -24 375 -106 541 -151 308 -423 462
-706 400z m290 -218 c140 -69 256 -229 307 -422 32 -121 37 -303 11 -428 -48
-229 -190 -415 -372 -487 -219 -86 -468 82 -569 386 -137 409 31 873 354 981
24 8 71 12 117 10 65 -3 89 -9 152 -40z"/>
<path d="M20862 7975 c-234 -51 -437 -255 -508 -510 -17 -64 -31 -277 -20
-319 l6 -26 660 0 659 0 7 36 c4 20 4 84 2 143 -11 222 -118 433 -281 557
-153 116 -342 159 -525 119z"/>
<path d="M19900 6890 l0 -110 208 0 208 0 -12 -72 c-28 -159 -11 -382 41 -541
91 -280 288 -484 525 -543 85 -22 230 -14 319 17 229 79 416 316 492 622 27
110 35 313 17 430 l-14 87 218 0 218 0 0 110 0 110 -1110 0 -1110 0 0 -110z
m1616 -257 c9 -90 -1 -265 -21 -338 -58 -219 -179 -385 -332 -458 -86 -40
-192 -49 -275 -22 -167 54 -315 232 -378 455 -24 83 -37 280 -26 374 l7 56
509 0 508 0 8 -67z"/>
<path d="M23450 6187 c-162 -215 -296 -397 -298 -404 -2 -7 45 8 105 33 59 25
147 62 194 81 l87 35 213 -111 c117 -61 214 -109 216 -107 5 5 -211 866 -217
866 -3 0 -138 -177 -300 -393z"/>
<path d="M22376 6539 c-11 -34 -127 -821 -122 -826 3 -3 97 48 209 114 l204
120 177 -89 c98 -49 180 -87 182 -85 3 3 -589 718 -642 776 -2 2 -6 -2 -8 -10z"/>
<path d="M22000 6244 c-146 -91 -269 -169 -274 -174 -4 -5 25 -24 65 -43 469
-218 829 -1038 1009 -2297 16 -113 32 -240 36 -282 l7 -78 548 0 549 0 0 834
0 834 323 108 c177 58 323 108 325 109 1 1 -15 44 -38 95 -84 196 -260 494
-491 835 -149 219 -157 230 -163 224 -3 -3 23 -169 58 -369 35 -201 63 -366
62 -367 0 -1 -110 41 -244 93 -133 52 -249 94 -257 94 -8 0 -107 -46 -220
-102 l-206 -103 -204 105 -203 105 -239 -97 c-131 -53 -239 -95 -240 -94 -1 1
16 154 37 341 42 356 45 395 33 395 -5 -1 -127 -75 -273 -166z"/>
<path d="M24070 6342 c0 -5 12 -19 26 -33 42 -39 118 -146 194 -274 70 -117
314 -598 377 -742 l31 -71 -161 -56 c-89 -31 -238 -83 -332 -115 l-170 -59 -3
-796 -2 -796 1241 0 1241 0 -5 23 c-34 137 -124 678 -162 967 -119 916 -110
1538 28 1820 18 36 34 68 35 73 10 22 -55 0 -162 -56 -259 -136 -825 -494
-931 -590 l-49 -44 -66 56 c-209 180 -524 386 -885 579 -185 99 -245 127 -245
114z"/>
<path d="M20169 5974 c-36 -19 -81 -48 -100 -63 -32 -27 -33 -30 -18 -47 43
-49 54 -87 54 -189 0 -115 -25 -209 -74 -287 -37 -58 -61 -65 -161 -48 -129
23 -121 27 -141 -65 -81 -357 -171 -1141 -212 -1842 l-2 -43 586 0 587 0 15
43 c8 23 128 364 267 757 226 642 251 717 238 736 -18 29 -960 1084 -967 1084
-3 0 -36 -16 -72 -36z"/>
<path d="M21220 4698 c-249 -711 -455 -1299 -458 -1305 -3 -10 201 -13 1002
-13 l1006 0 0 23 c0 40 -58 388 -100 602 -186 942 -463 1608 -777 1868 -55 45
-182 117 -207 117 -7 0 -215 -580 -466 -1292z"/>
<path d="M27376 1229 c-177 -42 -280 -186 -246 -347 25 -114 102 -169 321
-227 160 -43 214 -67 234 -106 23 -43 18 -68 -18 -104 -104 -104 -357 -36
-357 96 l0 29 -111 0 -112 0 7 -52 c25 -186 180 -298 413 -298 144 0 242 31
317 100 89 82 116 224 62 334 -44 90 -103 124 -312 180 -158 42 -212 63 -224
87 -44 82 59 162 180 139 25 -5 48 -9 52 -10 21 -1 69 -57 78 -91 l11 -39 106
0 106 0 -6 54 c-3 29 -14 71 -25 93 -22 43 -84 103 -131 127 -77 40 -249 57
-345 35z"/>
<path d="M17037 1133 l-67 -98 62 -3 c34 -2 72 0 83 3 11 3 65 48 120 100
l100 95 -116 0 -115 0 -67 -97z"/>
<path d="M0 730 l0 -490 110 0 110 0 0 200 0 200 205 0 205 0 0 90 0 90 -205
0 -205 0 0 105 0 105 235 0 235 0 0 95 0 95 -345 0 -345 0 0 -490z"/>
<path d="M2900 1055 l0 -165 -42 30 c-86 61 -220 64 -316 9 -152 -87 -206
-330 -116 -529 52 -117 146 -175 279 -174 86 0 126 14 178 62 l27 26 0 -37 0
-37 95 0 95 0 0 490 0 490 -100 0 -100 0 0 -165z m-73 -265 c53 -32 77 -91 78
-190 0 -144 -53 -220 -153 -220 -104 0 -166 86 -164 225 1 76 24 136 68 175
29 25 43 30 87 30 34 0 63 -7 84 -20z"/>
<path d="M4460 730 l0 -490 105 0 105 0 2 314 3 315 195 -315 195 -314 112 0
113 0 0 490 0 490 -105 0 -105 0 -2 -317 -3 -317 -196 315 -195 314 -112 3
-112 3 0 -491z"/>
<path d="M7000 1135 l0 -85 100 0 100 0 0 85 0 85 -100 0 -100 0 0 -85z"/>
<path d="M9750 730 l0 -490 105 0 105 0 0 490 0 490 -105 0 -105 0 0 -490z"/>
<path d="M10960 1055 l0 -165 -40 29 c-108 78 -279 63 -373 -34 -133 -136
-136 -421 -8 -568 18 -20 58 -49 89 -64 48 -24 69 -28 137 -28 86 1 126 15
178 63 l27 26 0 -37 0 -37 100 0 100 0 0 490 0 490 -105 0 -105 0 0 -165z
m-50 -280 c42 -40 64 -119 58 -206 -9 -120 -66 -189 -156 -189 -93 0 -152 72
-160 194 -5 85 9 144 45 186 35 42 57 50 126 47 47 -3 62 -8 87 -32z"/>
<path d="M12470 730 l0 -490 115 0 115 0 0 490 0 490 -115 0 -115 0 0 -490z"/>
<path d="M16390 1135 l0 -85 100 0 100 0 0 85 0 85 -100 0 -100 0 0 -85z"/>
<path d="M18760 730 l0 -490 110 0 110 0 0 174 0 174 168 4 c148 3 173 6 218
26 213 96 235 430 36 548 -74 45 -144 54 -410 54 l-232 0 0 -490z m484 296
c51 -21 76 -60 76 -118 0 -111 -43 -140 -217 -146 l-123 -4 0 141 0 141 115 0
c76 0 127 -5 149 -14z"/>
<path d="M21460 1048 l0 -172 -27 26 c-54 50 -92 63 -183 63 -73 0 -92 -4
-136 -27 -64 -34 -117 -94 -146 -167 -33 -83 -32 -261 1 -345 28 -71 95 -147
155 -176 97 -46 239 -32 311 31 l35 31 0 -36 0 -36 95 0 95 0 0 490 0 490
-100 0 -100 0 0 -172z m-80 -253 c110 -57 114 -328 5 -395 -45 -28 -112 -27
-156 3 -19 12 -45 44 -59 72 -51 104 -23 269 54 316 38 23 115 25 156 4z"/>
<path d="M23860 1135 l0 -85 100 0 100 0 0 85 0 85 -100 0 -100 0 0 -85z"/>
<path d="M29620 1135 l0 -85 100 0 100 0 0 85 0 85 -100 0 -100 0 0 -85z"/>
<path d="M30740 730 l0 -490 105 0 105 0 0 490 0 490 -105 0 -105 0 0 -490z"/>
<path d="M23430 1055 l0 -105 -60 0 -60 0 0 -70 0 -70 60 0 60 0 0 -236 c0
-206 2 -240 17 -265 34 -57 149 -89 267 -75 l56 7 0 80 0 79 -58 0 c-32 0 -63
5 -70 12 -9 9 -12 68 -12 205 l0 193 70 0 70 0 0 70 0 70 -70 0 -70 0 0 105 0
105 -100 0 -100 0 0 -105z"/>
<path d="M1011 955 c-69 -20 -108 -44 -158 -98 -62 -67 -86 -141 -86 -262 0
-119 22 -188 82 -257 98 -111 278 -146 439 -86 145 54 233 231 203 411 -23
137 -84 223 -193 272 -77 35 -203 43 -287 20z m219 -180 c47 -45 63 -101 58
-198 -5 -96 -24 -138 -79 -175 -28 -20 -44 -23 -91 -20 -68 5 -100 29 -130 97
-35 76 -24 223 20 276 38 46 64 57 129 53 53 -3 67 -9 93 -33z"/>
<path d="M1939 961 c-41 -13 -72 -31 -106 -64 l-33 -31 0 42 0 42 -95 0 -95 0
0 -355 0 -355 99 0 99 0 4 228 c4 247 11 284 62 317 39 26 97 30 135 10 56
-28 61 -56 61 -320 l0 -235 106 0 106 0 -4 273 c-5 302 -11 333 -71 395 -50
52 -183 78 -268 53z"/>
<path d="M3469 956 c-102 -27 -171 -87 -218 -186 -23 -50 -26 -67 -26 -175 0
-109 2 -125 26 -176 51 -107 138 -170 265 -191 134 -22 264 20 347 112 56 62
77 120 84 231 12 193 -78 334 -246 383 -64 19 -167 20 -232 2z m199 -166 c51
-31 77 -97 77 -195 0 -139 -58 -215 -166 -215 -58 0 -104 30 -133 85 -17 32
-21 58 -21 130 0 104 20 155 75 193 43 29 121 30 168 2z"/>
<path d="M5654 960 c-122 -26 -196 -92 -214 -192 l-7 -38 101 0 102 0 13 35
c15 43 54 65 115 65 59 0 92 -16 106 -51 28 -67 -10 -95 -151 -115 -223 -31
-285 -71 -304 -196 -10 -67 16 -148 59 -186 49 -43 99 -57 196 -56 86 0 160
22 201 60 15 13 17 12 22 -16 l7 -30 103 0 104 0 -13 52 c-10 37 -14 122 -14
286 0 253 -4 275 -56 324 -16 15 -49 35 -74 44 -52 18 -234 28 -296 14z m226
-427 c0 -121 -76 -189 -186 -169 -48 10 -74 38 -74 81 0 51 33 80 106 95 32 6
75 15 94 20 58 13 60 13 60 -27z"/>
<path d="M6457 960 c-161 -41 -257 -179 -257 -370 0 -186 93 -313 260 -356
149 -38 316 16 385 125 20 33 55 129 55 153 0 4 -44 8 -99 8 l-98 0 -6 -30
c-4 -16 -22 -46 -40 -66 -29 -32 -41 -38 -88 -41 -68 -5 -109 18 -141 79 -33
63 -32 194 1 261 29 59 70 87 129 87 62 0 100 -23 123 -76 l20 -44 94 0 95 0
0 33 c0 42 -40 125 -76 159 -54 50 -137 80 -233 84 -47 2 -103 -1 -124 -6z"/>
<path d="M7587 960 c-108 -28 -199 -107 -238 -209 -18 -44 -22 -77 -22 -156 0
-130 24 -197 97 -271 73 -72 141 -97 266 -97 125 0 193 25 266 97 73 73 97
141 97 271 1 122 -22 190 -88 263 -63 70 -143 104 -254 108 -47 2 -103 -1
-124 -6z m199 -180 c45 -42 64 -96 64 -185 0 -96 -25 -156 -80 -193 -29 -20
-45 -23 -92 -20 -100 7 -148 75 -148 213 0 94 20 146 71 189 30 26 39 28 96
24 49 -3 68 -9 89 -28z"/>
<path d="M8498 960 c-40 -12 -95 -48 -118 -77 l-20 -26 0 47 0 46 -95 0 -95 0
0 -355 0 -355 99 0 99 0 4 228 c4 247 11 284 62 317 38 25 97 30 134 11 58
-30 62 -49 62 -316 l0 -240 106 0 106 0 -5 273 c-4 301 -9 327 -64 388 -54 59
-183 87 -275 59z"/>
<path d="M9184 960 c-122 -26 -196 -92 -214 -192 l-7 -38 101 0 102 0 13 35
c15 43 54 65 115 65 59 0 92 -16 106 -51 28 -67 -10 -95 -151 -115 -151 -21
-207 -39 -250 -83 -105 -104 -62 -294 78 -342 47 -17 174 -17 229 -1 23 7 57
23 77 36 l35 24 6 -29 6 -29 105 0 106 0 -13 23 c-9 15 -14 102 -18 297 -4
239 -7 279 -22 302 -23 34 -73 72 -118 87 -44 16 -232 23 -286 11z m226 -427
c0 -121 -76 -189 -186 -169 -48 10 -74 38 -74 81 0 51 33 80 106 95 32 6 75
15 94 20 58 13 60 13 60 -27z"/>
<path d="M11504 950 c-102 -33 -181 -116 -219 -228 -26 -81 -18 -228 17 -304
35 -75 103 -141 176 -169 75 -29 213 -32 288 -6 85 29 169 118 189 200 l7 27
-87 0 c-84 0 -87 -1 -112 -30 -35 -42 -74 -60 -130 -60 -68 0 -113 26 -140 80
-43 85 -56 80 228 80 l251 0 -4 88 c-7 145 -72 253 -185 309 -75 36 -191 42
-279 13z m197 -157 c25 -15 69 -83 69 -106 0 -4 -68 -7 -151 -7 -134 0 -150 2
-145 16 3 9 6 19 6 24 0 15 53 72 74 80 37 15 116 11 147 -7z"/>
<path d="M13162 953 c-24 -8 -61 -32 -83 -53 l-39 -37 0 44 0 43 -95 0 -95 0
0 -355 0 -355 99 0 99 0 4 228 c4 247 11 284 62 317 34 23 105 29 135 13 14
-7 34 -29 45 -48 19 -32 21 -54 24 -272 l4 -238 100 0 100 0 -4 278 c-4 306
-7 324 -71 390 -56 58 -189 79 -285 45z"/>
<path d="M14587 960 c-181 -46 -291 -231 -258 -434 27 -165 118 -264 276 -296
186 -38 359 53 409 218 7 22 6 22 -81 22 -88 0 -90 0 -112 -31 -29 -39 -76
-59 -138 -59 -80 0 -137 48 -150 124 l-6 36 252 0 251 0 0 58 c0 110 -52 237
-119 293 -61 50 -119 71 -206 75 -44 2 -97 -1 -118 -6z m177 -171 c28 -22 56
-68 56 -94 0 -13 -21 -15 -145 -15 -110 0 -145 3 -145 13 0 24 35 78 65 97 42
28 133 28 169 -1z"/>
<path d="M15480 961 c-47 -15 -87 -40 -119 -76 l-31 -36 0 51 0 50 -100 0
-100 0 0 -355 0 -355 105 0 105 0 1 198 c1 212 6 243 52 291 35 37 84 54 147
49 l50 -3 0 98 0 97 -42 -1 c-24 0 -54 -4 -68 -8z"/>
<path d="M15833 960 c-92 -19 -162 -76 -183 -148 -28 -101 4 -178 91 -222 20
-11 88 -32 152 -48 64 -16 131 -38 149 -49 91 -53 1 -151 -119 -128 -43 8
-103 63 -103 94 0 20 -5 21 -95 21 l-95 0 0 -33 c0 -18 12 -56 26 -85 46 -94
145 -137 309 -137 214 2 324 92 313 257 -7 115 -59 154 -270 202 -84 20 -124
34 -142 51 -31 29 -32 36 -7 66 14 18 30 23 77 26 69 5 119 -19 130 -62 6 -25
8 -25 101 -25 l96 0 -6 41 c-11 87 -87 156 -195 178 -60 12 -167 13 -229 1z"/>
<path d="M16977 960 c-108 -28 -199 -107 -238 -209 -32 -81 -32 -232 1 -316
31 -80 105 -154 185 -185 83 -32 225 -33 306 -2 112 44 178 126 205 253 40
191 -35 365 -187 434 -49 22 -81 28 -148 31 -47 2 -103 -1 -124 -6z m199 -180
c45 -42 64 -96 64 -185 0 -96 -25 -156 -80 -193 -29 -20 -45 -23 -92 -20 -100
7 -148 75 -148 213 0 94 20 146 71 189 30 26 39 28 96 24 49 -3 68 -9 89 -28z"/>
<path d="M17888 960 c-40 -12 -95 -48 -118 -77 l-20 -26 0 47 0 46 -95 0 -95
0 0 -355 0 -355 99 0 99 0 4 228 c4 247 11 284 62 317 38 25 97 30 134 11 60
-31 66 -55 70 -318 l4 -238 100 0 100 0 -5 273 c-4 301 -9 327 -64 388 -54 59
-183 87 -275 59z"/>
<path d="M19955 947 c-27 -13 -67 -43 -87 -65 l-38 -42 0 55 0 55 -95 0 -95 0
0 -355 0 -355 99 0 99 0 3 198 c4 188 5 200 29 247 34 67 90 97 173 93 l58 -3
-3 95 -3 95 -45 3 c-31 1 -61 -5 -95 -21z"/>
<path d="M20371 955 c-143 -40 -234 -157 -247 -316 -22 -262 152 -441 404
-415 226 23 351 194 321 439 -16 128 -83 223 -197 274 -70 33 -200 41 -281 18z
m225 -187 c42 -47 57 -104 52 -199 -5 -88 -26 -131 -79 -167 -28 -20 -44 -23
-92 -20 -49 4 -62 9 -92 38 -45 43 -59 87 -59 181 0 90 27 156 77 189 26 17
44 20 96 17 58 -3 66 -6 97 -39z"/>
<path d="M22829 957 c-103 -29 -171 -88 -218 -187 -24 -50 -26 -66 -26 -180 0
-123 0 -126 34 -188 57 -105 146 -163 275 -178 113 -13 255 36 310 109 30 39
61 108 70 155 l6 32 -99 0 -99 0 -7 -30 c-21 -93 -137 -141 -215 -87 -55 37
-75 88 -75 192 0 104 23 162 78 195 39 24 106 26 147 5 30 -15 60 -61 60 -90
0 -12 16 -15 101 -15 l102 0 -7 47 c-18 134 -136 222 -306 229 -51 2 -103 -1
-131 -9z"/>
<path d="M25090 955 c-110 -31 -175 -96 -193 -192 l-6 -33 103 0 104 0 5 30
c9 42 58 70 123 70 83 0 136 -60 100 -115 -19 -29 -56 -41 -176 -55 -120 -15
-190 -41 -229 -85 -67 -77 -67 -203 0 -280 42 -47 107 -70 199 -70 87 1 143
15 193 49 l35 24 6 -29 6 -29 101 0 c101 0 101 0 94 23 -4 12 -11 146 -14 297
-4 180 -10 282 -18 295 -19 34 -56 63 -108 86 -66 29 -243 37 -325 14z m247
-447 c-6 -70 -27 -105 -78 -130 -69 -36 -177 -9 -180 44 -4 72 23 101 108 118
32 7 74 15 93 20 65 15 63 16 57 -52z"/>
<path d="M28240 956 c-100 -28 -175 -91 -217 -184 -38 -81 -44 -214 -14 -310
28 -93 93 -167 183 -207 55 -25 75 -29 158 -30 148 0 240 44 312 150 45 68 62
141 56 255 -10 212 -151 342 -368 339 -36 0 -85 -6 -110 -13z m197 -166 c55
-33 78 -91 78 -195 0 -75 -4 -97 -23 -133 -30 -56 -73 -82 -137 -82 -108 0
-160 72 -160 220 1 99 25 158 78 190 43 26 121 26 164 0z"/>
<path d="M29069 957 c-61 -17 -131 -59 -165 -99 -94 -112 -116 -315 -48 -455
63 -131 222 -203 385 -175 86 15 138 40 189 93 40 41 80 129 80 174 0 25 -1
25 -93 25 l-93 0 -21 -49 c-28 -68 -70 -93 -141 -88 -65 5 -104 38 -128 109
-22 67 -16 179 12 233 40 77 131 108 204 70 30 -15 60 -61 60 -90 0 -12 16
-15 100 -15 98 0 100 0 100 23 0 40 -29 111 -61 150 -16 20 -58 50 -94 68 -54
26 -78 32 -152 35 -53 2 -106 -1 -134 -9z"/>
<path d="M30185 964 c-141 -36 -208 -95 -228 -201 l-6 -33 103 0 104 0 5 30
c12 58 120 91 187 57 36 -18 55 -63 41 -94 -15 -33 -58 -48 -176 -63 -122 -15
-191 -40 -232 -82 -93 -99 -60 -275 62 -329 94 -41 235 -32 319 21 l45 29 3
-27 3 -27 104 -3 104 -3 -8 23 c-4 13 -11 147 -14 298 -4 180 -10 282 -18 295
-42 73 -124 107 -268 111 -60 2 -119 1 -130 -2z m212 -456 c-6 -70 -27 -105
-78 -130 -69 -36 -177 -9 -180 44 -4 72 23 101 108 118 32 7 74 15 93 20 65
15 63 16 57 -52z"/>
<path d="M7000 595 l0 -355 100 0 100 0 0 355 0 355 -100 0 -100 0 0 -355z"/>
<path d="M13591 938 c0 -7 53 -166 117 -353 l118 -340 113 0 113 0 119 350
c65 193 119 351 119 353 0 1 -46 1 -102 0 l-102 -3 -61 -195 c-33 -107 -66
-211 -71 -230 -12 -39 -4 -59 -120 315 l-35 115 -105 0 c-77 0 -104 -3 -103
-12z"/>
<path d="M16390 595 l0 -355 100 0 100 0 0 355 0 355 -100 0 -100 0 0 -355z"/>
<path d="M21800 683 c0 -277 5 -317 43 -374 68 -104 277 -116 385 -24 l42 37
0 -41 0 -41 95 0 95 0 0 355 0 355 -99 0 -99 0 -4 -232 c-3 -254 -8 -278 -64
-315 -37 -24 -117 -22 -145 3 -44 39 -49 69 -49 314 l0 230 -100 0 -100 0 0
-267z"/>
<path d="M23860 595 l0 -355 100 0 100 0 0 355 0 355 -100 0 -100 0 0 -355z"/>
<path d="M24135 933 c11 -29 235 -686 235 -689 0 -2 51 -4 113 -4 l112 0 118
348 c65 191 117 350 117 355 0 4 -45 7 -99 7 l-99 0 -32 -102 c-17 -57 -50
-161 -72 -232 l-41 -130 -71 232 -71 232 -109 0 c-99 0 -108 -1 -101 -17z"/>
<path d="M25975 933 c4 -10 63 -166 131 -348 134 -354 137 -366 86 -405 -23
-18 -34 -20 -89 -14 l-63 6 0 -86 0 -86 105 0 c140 0 201 26 241 103 14 26
301 792 312 830 4 15 -6 17 -100 17 l-105 0 -39 -122 c-21 -68 -55 -172 -75
-233 l-35 -110 -78 233 -78 232 -110 0 c-101 0 -110 -1 -103 -17z"/>
<path d="M29620 595 l0 -355 100 0 100 0 0 355 0 355 -100 0 -100 0 0 -355z"/>
</g>
</svg>
